<?xml version="1.0" encoding="utf-8" standalone="no"?>
<!DOCTYPE svg PUBLIC "-//W3C//DTD SVG 1.1//EN"
  "http://www.w3.org/Graphics/SVG/1.1/DTD/svg11.dtd">
<!-- Created with matplotlib (http://matplotlib.org/) -->
<svg height="576pt" version="1.1" viewBox="0 0 864 576" width="864pt" xmlns="http://www.w3.org/2000/svg" xmlns:xlink="http://www.w3.org/1999/xlink">
 <defs>
  <style type="text/css">
*{stroke-linecap:butt;stroke-linejoin:round;}
  </style>
 </defs>
 <g id="figure_1">
  <g id="patch_1">
   <path d="M 0 576 
L 864 576 
L 864 0 
L 0 0 
z
" style="fill:#ffffff;"/>
  </g>
  <g id="axes_1">
   <g id="patch_2">
    <path d="M 50.87 493.36 
L 850.68 493.36 
L 850.68 26.88 
L 50.87 26.88 
z
" style="fill:#ffffff;"/>
   </g>
   <g id="matplotlib.axis_1">
    <g id="xtick_1">
     <g id="line2d_1">
      <path clip-path="url(#p24cf5ed03f)" d="M 87.225 493.36 
L 87.225 26.88 
" style="fill:none;stroke:#b0b0b0;stroke-linecap:square;stroke-width:0.8;"/>
     </g>
     <g id="line2d_2">
      <defs>
       <path d="M 0 0 
L 0 3.5 
" id="mdb07e3fdb1" style="stroke:#000000;stroke-width:0.8;"/>
      </defs>
      <g>
       <use style="stroke:#000000;stroke-width:0.8;" x="87.225" xlink:href="#mdb07e3fdb1" y="493.36"/>
      </g>
     </g>
     <g id="text_1">
      <!-- 20180327 -->
      <defs>
       <path d="M 19.1875 8.296875 
L 53.609375 8.296875 
L 53.609375 0 
L 7.328125 0 
L 7.328125 8.296875 
Q 12.9375 14.109375 22.625 23.890625 
Q 32.328125 33.6875 34.8125 36.53125 
Q 39.546875 41.84375 41.421875 45.53125 
Q 43.3125 49.21875 43.3125 52.78125 
Q 43.3125 58.59375 39.234375 62.25 
Q 35.15625 65.921875 28.609375 65.921875 
Q 23.96875 65.921875 18.8125 64.3125 
Q 13.671875 62.703125 7.8125 59.421875 
L 7.8125 69.390625 
Q 13.765625 71.78125 18.9375 73 
Q 24.125 74.21875 28.421875 74.21875 
Q 39.75 74.21875 46.484375 68.546875 
Q 53.21875 62.890625 53.21875 53.421875 
Q 53.21875 48.921875 51.53125 44.890625 
Q 49.859375 40.875 45.40625 35.40625 
Q 44.1875 33.984375 37.640625 27.21875 
Q 31.109375 20.453125 19.1875 8.296875 
z
" id="DejaVuSans-32"/>
       <path d="M 31.78125 66.40625 
Q 24.171875 66.40625 20.328125 58.90625 
Q 16.5 51.421875 16.5 36.375 
Q 16.5 21.390625 20.328125 13.890625 
Q 24.171875 6.390625 31.78125 6.390625 
Q 39.453125 6.390625 43.28125 13.890625 
Q 47.125 21.390625 47.125 36.375 
Q 47.125 51.421875 43.28125 58.90625 
Q 39.453125 66.40625 31.78125 66.40625 
z
M 31.78125 74.21875 
Q 44.046875 74.21875 50.515625 64.515625 
Q 56.984375 54.828125 56.984375 36.375 
Q 56.984375 17.96875 50.515625 8.265625 
Q 44.046875 -1.421875 31.78125 -1.421875 
Q 19.53125 -1.421875 13.0625 8.265625 
Q 6.59375 17.96875 6.59375 36.375 
Q 6.59375 54.828125 13.0625 64.515625 
Q 19.53125 74.21875 31.78125 74.21875 
z
" id="DejaVuSans-30"/>
       <path d="M 12.40625 8.296875 
L 28.515625 8.296875 
L 28.515625 63.921875 
L 10.984375 60.40625 
L 10.984375 69.390625 
L 28.421875 72.90625 
L 38.28125 72.90625 
L 38.28125 8.296875 
L 54.390625 8.296875 
L 54.390625 0 
L 12.40625 0 
z
" id="DejaVuSans-31"/>
       <path d="M 31.78125 34.625 
Q 24.75 34.625 20.71875 30.859375 
Q 16.703125 27.09375 16.703125 20.515625 
Q 16.703125 13.921875 20.71875 10.15625 
Q 24.75 6.390625 31.78125 6.390625 
Q 38.8125 6.390625 42.859375 10.171875 
Q 46.921875 13.96875 46.921875 20.515625 
Q 46.921875 27.09375 42.890625 30.859375 
Q 38.875 34.625 31.78125 34.625 
z
M 21.921875 38.8125 
Q 15.578125 40.375 12.03125 44.71875 
Q 8.5 49.078125 8.5 55.328125 
Q 8.5 64.0625 14.71875 69.140625 
Q 20.953125 74.21875 31.78125 74.21875 
Q 42.671875 74.21875 48.875 69.140625 
Q 55.078125 64.0625 55.078125 55.328125 
Q 55.078125 49.078125 51.53125 44.71875 
Q 48 40.375 41.703125 38.8125 
Q 48.828125 37.15625 52.796875 32.3125 
Q 56.78125 27.484375 56.78125 20.515625 
Q 56.78125 9.90625 50.3125 4.234375 
Q 43.84375 -1.421875 31.78125 -1.421875 
Q 19.734375 -1.421875 13.25 4.234375 
Q 6.78125 9.90625 6.78125 20.515625 
Q 6.78125 27.484375 10.78125 32.3125 
Q 14.796875 37.15625 21.921875 38.8125 
z
M 18.3125 54.390625 
Q 18.3125 48.734375 21.84375 45.5625 
Q 25.390625 42.390625 31.78125 42.390625 
Q 38.140625 42.390625 41.71875 45.5625 
Q 45.3125 48.734375 45.3125 54.390625 
Q 45.3125 60.0625 41.71875 63.234375 
Q 38.140625 66.40625 31.78125 66.40625 
Q 25.390625 66.40625 21.84375 63.234375 
Q 18.3125 60.0625 18.3125 54.390625 
z
" id="DejaVuSans-38"/>
       <path d="M 40.578125 39.3125 
Q 47.65625 37.796875 51.625 33 
Q 55.609375 28.21875 55.609375 21.1875 
Q 55.609375 10.40625 48.1875 4.484375 
Q 40.765625 -1.421875 27.09375 -1.421875 
Q 22.515625 -1.421875 17.65625 -0.515625 
Q 12.796875 0.390625 7.625 2.203125 
L 7.625 11.71875 
Q 11.71875 9.328125 16.59375 8.109375 
Q 21.484375 6.890625 26.8125 6.890625 
Q 36.078125 6.890625 40.9375 10.546875 
Q 45.796875 14.203125 45.796875 21.1875 
Q 45.796875 27.640625 41.28125 31.265625 
Q 36.765625 34.90625 28.71875 34.90625 
L 20.21875 34.90625 
L 20.21875 43.015625 
L 29.109375 43.015625 
Q 36.375 43.015625 40.234375 45.921875 
Q 44.09375 48.828125 44.09375 54.296875 
Q 44.09375 59.90625 40.109375 62.90625 
Q 36.140625 65.921875 28.71875 65.921875 
Q 24.65625 65.921875 20.015625 65.03125 
Q 15.375 64.15625 9.8125 62.3125 
L 9.8125 71.09375 
Q 15.4375 72.65625 20.34375 73.4375 
Q 25.25 74.21875 29.59375 74.21875 
Q 40.828125 74.21875 47.359375 69.109375 
Q 53.90625 64.015625 53.90625 55.328125 
Q 53.90625 49.265625 50.4375 45.09375 
Q 46.96875 40.921875 40.578125 39.3125 
z
" id="DejaVuSans-33"/>
       <path d="M 8.203125 72.90625 
L 55.078125 72.90625 
L 55.078125 68.703125 
L 28.609375 0 
L 18.3125 0 
L 43.21875 64.59375 
L 8.203125 64.59375 
z
" id="DejaVuSans-37"/>
      </defs>
      <g transform="translate(89.984375 551.26)rotate(-90)scale(0.1 -0.1)">
       <use xlink:href="#DejaVuSans-32"/>
       <use x="63.623047" xlink:href="#DejaVuSans-30"/>
       <use x="127.246094" xlink:href="#DejaVuSans-31"/>
       <use x="190.869141" xlink:href="#DejaVuSans-38"/>
       <use x="254.492188" xlink:href="#DejaVuSans-30"/>
       <use x="318.115234" xlink:href="#DejaVuSans-33"/>
       <use x="381.738281" xlink:href="#DejaVuSans-32"/>
       <use x="445.361328" xlink:href="#DejaVuSans-37"/>
      </g>
     </g>
    </g>
    <g id="xtick_2">
     <g id="line2d_3">
      <path clip-path="url(#p24cf5ed03f)" d="M 147.816667 493.36 
L 147.816667 26.88 
" style="fill:none;stroke:#b0b0b0;stroke-linecap:square;stroke-width:0.8;"/>
     </g>
     <g id="line2d_4">
      <g>
       <use style="stroke:#000000;stroke-width:0.8;" x="147.816667" xlink:href="#mdb07e3fdb1" y="493.36"/>
      </g>
     </g>
     <g id="text_2">
      <!-- 20180330 -->
      <g transform="translate(150.576042 551.26)rotate(-90)scale(0.1 -0.1)">
       <use xlink:href="#DejaVuSans-32"/>
       <use x="63.623047" xlink:href="#DejaVuSans-30"/>
       <use x="127.246094" xlink:href="#DejaVuSans-31"/>
       <use x="190.869141" xlink:href="#DejaVuSans-38"/>
       <use x="254.492188" xlink:href="#DejaVuSans-30"/>
       <use x="318.115234" xlink:href="#DejaVuSans-33"/>
       <use x="381.738281" xlink:href="#DejaVuSans-33"/>
       <use x="445.361328" xlink:href="#DejaVuSans-30"/>
      </g>
     </g>
    </g>
    <g id="xtick_3">
     <g id="line2d_5">
      <path clip-path="url(#p24cf5ed03f)" d="M 208.408333 493.36 
L 208.408333 26.88 
" style="fill:none;stroke:#b0b0b0;stroke-linecap:square;stroke-width:0.8;"/>
     </g>
     <g id="line2d_6">
      <g>
       <use style="stroke:#000000;stroke-width:0.8;" x="208.408333" xlink:href="#mdb07e3fdb1" y="493.36"/>
      </g>
     </g>
     <g id="text_3">
      <!-- 20180404 -->
      <defs>
       <path d="M 37.796875 64.3125 
L 12.890625 25.390625 
L 37.796875 25.390625 
z
M 35.203125 72.90625 
L 47.609375 72.90625 
L 47.609375 25.390625 
L 58.015625 25.390625 
L 58.015625 17.1875 
L 47.609375 17.1875 
L 47.609375 0 
L 37.796875 0 
L 37.796875 17.1875 
L 4.890625 17.1875 
L 4.890625 26.703125 
z
" id="DejaVuSans-34"/>
      </defs>
      <g transform="translate(211.167708 551.26)rotate(-90)scale(0.1 -0.1)">
       <use xlink:href="#DejaVuSans-32"/>
       <use x="63.623047" xlink:href="#DejaVuSans-30"/>
       <use x="127.246094" xlink:href="#DejaVuSans-31"/>
       <use x="190.869141" xlink:href="#DejaVuSans-38"/>
       <use x="254.492188" xlink:href="#DejaVuSans-30"/>
       <use x="318.115234" xlink:href="#DejaVuSans-34"/>
       <use x="381.738281" xlink:href="#DejaVuSans-30"/>
       <use x="445.361328" xlink:href="#DejaVuSans-34"/>
      </g>
     </g>
    </g>
    <g id="xtick_4">
     <g id="line2d_7">
      <path clip-path="url(#p24cf5ed03f)" d="M 269 493.36 
L 269 26.88 
" style="fill:none;stroke:#b0b0b0;stroke-linecap:square;stroke-width:0.8;"/>
     </g>
     <g id="line2d_8">
      <g>
       <use style="stroke:#000000;stroke-width:0.8;" x="269" xlink:href="#mdb07e3fdb1" y="493.36"/>
      </g>
     </g>
     <g id="text_4">
      <!-- 20180406 -->
      <defs>
       <path d="M 33.015625 40.375 
Q 26.375 40.375 22.484375 35.828125 
Q 18.609375 31.296875 18.609375 23.390625 
Q 18.609375 15.53125 22.484375 10.953125 
Q 26.375 6.390625 33.015625 6.390625 
Q 39.65625 6.390625 43.53125 10.953125 
Q 47.40625 15.53125 47.40625 23.390625 
Q 47.40625 31.296875 43.53125 35.828125 
Q 39.65625 40.375 33.015625 40.375 
z
M 52.59375 71.296875 
L 52.59375 62.3125 
Q 48.875 64.0625 45.09375 64.984375 
Q 41.3125 65.921875 37.59375 65.921875 
Q 27.828125 65.921875 22.671875 59.328125 
Q 17.53125 52.734375 16.796875 39.40625 
Q 19.671875 43.65625 24.015625 45.921875 
Q 28.375 48.1875 33.59375 48.1875 
Q 44.578125 48.1875 50.953125 41.515625 
Q 57.328125 34.859375 57.328125 23.390625 
Q 57.328125 12.15625 50.6875 5.359375 
Q 44.046875 -1.421875 33.015625 -1.421875 
Q 20.359375 -1.421875 13.671875 8.265625 
Q 6.984375 17.96875 6.984375 36.375 
Q 6.984375 53.65625 15.1875 63.9375 
Q 23.390625 74.21875 37.203125 74.21875 
Q 40.921875 74.21875 44.703125 73.484375 
Q 48.484375 72.75 52.59375 71.296875 
z
" id="DejaVuSans-36"/>
      </defs>
      <g transform="translate(271.759375 551.26)rotate(-90)scale(0.1 -0.1)">
       <use xlink:href="#DejaVuSans-32"/>
       <use x="63.623047" xlink:href="#DejaVuSans-30"/>
       <use x="127.246094" xlink:href="#DejaVuSans-31"/>
       <use x="190.869141" xlink:href="#DejaVuSans-38"/>
       <use x="254.492188" xlink:href="#DejaVuSans-30"/>
       <use x="318.115234" xlink:href="#DejaVuSans-34"/>
       <use x="381.738281" xlink:href="#DejaVuSans-30"/>
       <use x="445.361328" xlink:href="#DejaVuSans-36"/>
      </g>
     </g>
    </g>
    <g id="xtick_5">
     <g id="line2d_9">
      <path clip-path="url(#p24cf5ed03f)" d="M 329.591667 493.36 
L 329.591667 26.88 
" style="fill:none;stroke:#b0b0b0;stroke-linecap:square;stroke-width:0.8;"/>
     </g>
     <g id="line2d_10">
      <g>
       <use style="stroke:#000000;stroke-width:0.8;" x="329.591667" xlink:href="#mdb07e3fdb1" y="493.36"/>
      </g>
     </g>
     <g id="text_5">
      <!-- 20180411 -->
      <g transform="translate(332.351042 551.26)rotate(-90)scale(0.1 -0.1)">
       <use xlink:href="#DejaVuSans-32"/>
       <use x="63.623047" xlink:href="#DejaVuSans-30"/>
       <use x="127.246094" xlink:href="#DejaVuSans-31"/>
       <use x="190.869141" xlink:href="#DejaVuSans-38"/>
       <use x="254.492188" xlink:href="#DejaVuSans-30"/>
       <use x="318.115234" xlink:href="#DejaVuSans-34"/>
       <use x="381.738281" xlink:href="#DejaVuSans-31"/>
       <use x="445.361328" xlink:href="#DejaVuSans-31"/>
      </g>
     </g>
    </g>
    <g id="xtick_6">
     <g id="line2d_11">
      <path clip-path="url(#p24cf5ed03f)" d="M 390.183333 493.36 
L 390.183333 26.88 
" style="fill:none;stroke:#b0b0b0;stroke-linecap:square;stroke-width:0.8;"/>
     </g>
     <g id="line2d_12">
      <g>
       <use style="stroke:#000000;stroke-width:0.8;" x="390.183333" xlink:href="#mdb07e3fdb1" y="493.36"/>
      </g>
     </g>
     <g id="text_6">
      <!-- 20180412 -->
      <g transform="translate(392.942708 551.26)rotate(-90)scale(0.1 -0.1)">
       <use xlink:href="#DejaVuSans-32"/>
       <use x="63.623047" xlink:href="#DejaVuSans-30"/>
       <use x="127.246094" xlink:href="#DejaVuSans-31"/>
       <use x="190.869141" xlink:href="#DejaVuSans-38"/>
       <use x="254.492188" xlink:href="#DejaVuSans-30"/>
       <use x="318.115234" xlink:href="#DejaVuSans-34"/>
       <use x="381.738281" xlink:href="#DejaVuSans-31"/>
       <use x="445.361328" xlink:href="#DejaVuSans-32"/>
      </g>
     </g>
    </g>
    <g id="xtick_7">
     <g id="line2d_13">
      <path clip-path="url(#p24cf5ed03f)" d="M 450.775 493.36 
L 450.775 26.88 
" style="fill:none;stroke:#b0b0b0;stroke-linecap:square;stroke-width:0.8;"/>
     </g>
     <g id="line2d_14">
      <g>
       <use style="stroke:#000000;stroke-width:0.8;" x="450.775" xlink:href="#mdb07e3fdb1" y="493.36"/>
      </g>
     </g>
     <g id="text_7">
      <!-- 20180420 -->
      <g transform="translate(453.534375 551.26)rotate(-90)scale(0.1 -0.1)">
       <use xlink:href="#DejaVuSans-32"/>
       <use x="63.623047" xlink:href="#DejaVuSans-30"/>
       <use x="127.246094" xlink:href="#DejaVuSans-31"/>
       <use x="190.869141" xlink:href="#DejaVuSans-38"/>
       <use x="254.492188" xlink:href="#DejaVuSans-30"/>
       <use x="318.115234" xlink:href="#DejaVuSans-34"/>
       <use x="381.738281" xlink:href="#DejaVuSans-32"/>
       <use x="445.361328" xlink:href="#DejaVuSans-30"/>
      </g>
     </g>
    </g>
    <g id="xtick_8">
     <g id="line2d_15">
      <path clip-path="url(#p24cf5ed03f)" d="M 511.366667 493.36 
L 511.366667 26.88 
" style="fill:none;stroke:#b0b0b0;stroke-linecap:square;stroke-width:0.8;"/>
     </g>
     <g id="line2d_16">
      <g>
       <use style="stroke:#000000;stroke-width:0.8;" x="511.366667" xlink:href="#mdb07e3fdb1" y="493.36"/>
      </g>
     </g>
     <g id="text_8">
      <!-- 20180426 -->
      <g transform="translate(514.126042 551.26)rotate(-90)scale(0.1 -0.1)">
       <use xlink:href="#DejaVuSans-32"/>
       <use x="63.623047" xlink:href="#DejaVuSans-30"/>
       <use x="127.246094" xlink:href="#DejaVuSans-31"/>
       <use x="190.869141" xlink:href="#DejaVuSans-38"/>
       <use x="254.492188" xlink:href="#DejaVuSans-30"/>
       <use x="318.115234" xlink:href="#DejaVuSans-34"/>
       <use x="381.738281" xlink:href="#DejaVuSans-32"/>
       <use x="445.361328" xlink:href="#DejaVuSans-36"/>
      </g>
     </g>
    </g>
    <g id="xtick_9">
     <g id="line2d_17">
      <path clip-path="url(#p24cf5ed03f)" d="M 571.958333 493.36 
L 571.958333 26.88 
" style="fill:none;stroke:#b0b0b0;stroke-linecap:square;stroke-width:0.8;"/>
     </g>
     <g id="line2d_18">
      <g>
       <use style="stroke:#000000;stroke-width:0.8;" x="571.958333" xlink:href="#mdb07e3fdb1" y="493.36"/>
      </g>
     </g>
     <g id="text_9">
      <!-- 20180503 -->
      <defs>
       <path d="M 10.796875 72.90625 
L 49.515625 72.90625 
L 49.515625 64.59375 
L 19.828125 64.59375 
L 19.828125 46.734375 
Q 21.96875 47.46875 24.109375 47.828125 
Q 26.265625 48.1875 28.421875 48.1875 
Q 40.625 48.1875 47.75 41.5 
Q 54.890625 34.8125 54.890625 23.390625 
Q 54.890625 11.625 47.5625 5.09375 
Q 40.234375 -1.421875 26.90625 -1.421875 
Q 22.3125 -1.421875 17.546875 -0.640625 
Q 12.796875 0.140625 7.71875 1.703125 
L 7.71875 11.625 
Q 12.109375 9.234375 16.796875 8.0625 
Q 21.484375 6.890625 26.703125 6.890625 
Q 35.15625 6.890625 40.078125 11.328125 
Q 45.015625 15.765625 45.015625 23.390625 
Q 45.015625 31 40.078125 35.4375 
Q 35.15625 39.890625 26.703125 39.890625 
Q 22.75 39.890625 18.8125 39.015625 
Q 14.890625 38.140625 10.796875 36.28125 
z
" id="DejaVuSans-35"/>
      </defs>
      <g transform="translate(574.717708 551.26)rotate(-90)scale(0.1 -0.1)">
       <use xlink:href="#DejaVuSans-32"/>
       <use x="63.623047" xlink:href="#DejaVuSans-30"/>
       <use x="127.246094" xlink:href="#DejaVuSans-31"/>
       <use x="190.869141" xlink:href="#DejaVuSans-38"/>
       <use x="254.492188" xlink:href="#DejaVuSans-30"/>
       <use x="318.115234" xlink:href="#DejaVuSans-35"/>
       <use x="381.738281" xlink:href="#DejaVuSans-30"/>
       <use x="445.361328" xlink:href="#DejaVuSans-33"/>
      </g>
     </g>
    </g>
    <g id="xtick_10">
     <g id="line2d_19">
      <path clip-path="url(#p24cf5ed03f)" d="M 632.55 493.36 
L 632.55 26.88 
" style="fill:none;stroke:#b0b0b0;stroke-linecap:square;stroke-width:0.8;"/>
     </g>
     <g id="line2d_20">
      <g>
       <use style="stroke:#000000;stroke-width:0.8;" x="632.55" xlink:href="#mdb07e3fdb1" y="493.36"/>
      </g>
     </g>
     <g id="text_10">
      <!-- 20180510 -->
      <g transform="translate(635.309375 551.26)rotate(-90)scale(0.1 -0.1)">
       <use xlink:href="#DejaVuSans-32"/>
       <use x="63.623047" xlink:href="#DejaVuSans-30"/>
       <use x="127.246094" xlink:href="#DejaVuSans-31"/>
       <use x="190.869141" xlink:href="#DejaVuSans-38"/>
       <use x="254.492188" xlink:href="#DejaVuSans-30"/>
       <use x="318.115234" xlink:href="#DejaVuSans-35"/>
       <use x="381.738281" xlink:href="#DejaVuSans-31"/>
       <use x="445.361328" xlink:href="#DejaVuSans-30"/>
      </g>
     </g>
    </g>
    <g id="xtick_11">
     <g id="line2d_21">
      <path clip-path="url(#p24cf5ed03f)" d="M 693.141667 493.36 
L 693.141667 26.88 
" style="fill:none;stroke:#b0b0b0;stroke-linecap:square;stroke-width:0.8;"/>
     </g>
     <g id="line2d_22">
      <g>
       <use style="stroke:#000000;stroke-width:0.8;" x="693.141667" xlink:href="#mdb07e3fdb1" y="493.36"/>
      </g>
     </g>
     <g id="text_11">
      <!-- 20180517 -->
      <g transform="translate(695.901042 551.26)rotate(-90)scale(0.1 -0.1)">
       <use xlink:href="#DejaVuSans-32"/>
       <use x="63.623047" xlink:href="#DejaVuSans-30"/>
       <use x="127.246094" xlink:href="#DejaVuSans-31"/>
       <use x="190.869141" xlink:href="#DejaVuSans-38"/>
       <use x="254.492188" xlink:href="#DejaVuSans-30"/>
       <use x="318.115234" xlink:href="#DejaVuSans-35"/>
       <use x="381.738281" xlink:href="#DejaVuSans-31"/>
       <use x="445.361328" xlink:href="#DejaVuSans-37"/>
      </g>
     </g>
    </g>
    <g id="xtick_12">
     <g id="line2d_23">
      <path clip-path="url(#p24cf5ed03f)" d="M 753.733333 493.36 
L 753.733333 26.88 
" style="fill:none;stroke:#b0b0b0;stroke-linecap:square;stroke-width:0.8;"/>
     </g>
     <g id="line2d_24">
      <g>
       <use style="stroke:#000000;stroke-width:0.8;" x="753.733333" xlink:href="#mdb07e3fdb1" y="493.36"/>
      </g>
     </g>
     <g id="text_12">
      <!-- 20180524 -->
      <g transform="translate(756.492708 551.26)rotate(-90)scale(0.1 -0.1)">
       <use xlink:href="#DejaVuSans-32"/>
       <use x="63.623047" xlink:href="#DejaVuSans-30"/>
       <use x="127.246094" xlink:href="#DejaVuSans-31"/>
       <use x="190.869141" xlink:href="#DejaVuSans-38"/>
       <use x="254.492188" xlink:href="#DejaVuSans-30"/>
       <use x="318.115234" xlink:href="#DejaVuSans-35"/>
       <use x="381.738281" xlink:href="#DejaVuSans-32"/>
       <use x="445.361328" xlink:href="#DejaVuSans-34"/>
      </g>
     </g>
    </g>
    <g id="xtick_13">
     <g id="line2d_25">
      <path clip-path="url(#p24cf5ed03f)" d="M 814.325 493.36 
L 814.325 26.88 
" style="fill:none;stroke:#b0b0b0;stroke-linecap:square;stroke-width:0.8;"/>
     </g>
     <g id="line2d_26">
      <g>
       <use style="stroke:#000000;stroke-width:0.8;" x="814.325" xlink:href="#mdb07e3fdb1" y="493.36"/>
      </g>
     </g>
     <g id="text_13">
      <!-- 20180531 -->
      <g transform="translate(817.084375 551.26)rotate(-90)scale(0.1 -0.1)">
       <use xlink:href="#DejaVuSans-32"/>
       <use x="63.623047" xlink:href="#DejaVuSans-30"/>
       <use x="127.246094" xlink:href="#DejaVuSans-31"/>
       <use x="190.869141" xlink:href="#DejaVuSans-38"/>
       <use x="254.492188" xlink:href="#DejaVuSans-30"/>
       <use x="318.115234" xlink:href="#DejaVuSans-35"/>
       <use x="381.738281" xlink:href="#DejaVuSans-33"/>
       <use x="445.361328" xlink:href="#DejaVuSans-31"/>
      </g>
     </g>
    </g>
    <g id="text_14">
     <!-- Date -->
     <defs>
      <path d="M 19.671875 64.796875 
L 19.671875 8.109375 
L 31.59375 8.109375 
Q 46.6875 8.109375 53.6875 14.9375 
Q 60.6875 21.78125 60.6875 36.53125 
Q 60.6875 51.171875 53.6875 57.984375 
Q 46.6875 64.796875 31.59375 64.796875 
z
M 9.8125 72.90625 
L 30.078125 72.90625 
Q 51.265625 72.90625 61.171875 64.09375 
Q 71.09375 55.28125 71.09375 36.53125 
Q 71.09375 17.671875 61.125 8.828125 
Q 51.171875 0 30.078125 0 
L 9.8125 0 
z
" id="DejaVuSans-44"/>
      <path d="M 34.28125 27.484375 
Q 23.390625 27.484375 19.1875 25 
Q 14.984375 22.515625 14.984375 16.5 
Q 14.984375 11.71875 18.140625 8.90625 
Q 21.296875 6.109375 26.703125 6.109375 
Q 34.1875 6.109375 38.703125 11.40625 
Q 43.21875 16.703125 43.21875 25.484375 
L 43.21875 27.484375 
z
M 52.203125 31.203125 
L 52.203125 0 
L 43.21875 0 
L 43.21875 8.296875 
Q 40.140625 3.328125 35.546875 0.953125 
Q 30.953125 -1.421875 24.3125 -1.421875 
Q 15.921875 -1.421875 10.953125 3.296875 
Q 6 8.015625 6 15.921875 
Q 6 25.140625 12.171875 29.828125 
Q 18.359375 34.515625 30.609375 34.515625 
L 43.21875 34.515625 
L 43.21875 35.40625 
Q 43.21875 41.609375 39.140625 45 
Q 35.0625 48.390625 27.6875 48.390625 
Q 23 48.390625 18.546875 47.265625 
Q 14.109375 46.140625 10.015625 43.890625 
L 10.015625 52.203125 
Q 14.9375 54.109375 19.578125 55.046875 
Q 24.21875 56 28.609375 56 
Q 40.484375 56 46.34375 49.84375 
Q 52.203125 43.703125 52.203125 31.203125 
z
" id="DejaVuSans-61"/>
      <path d="M 18.3125 70.21875 
L 18.3125 54.6875 
L 36.8125 54.6875 
L 36.8125 47.703125 
L 18.3125 47.703125 
L 18.3125 18.015625 
Q 18.3125 11.328125 20.140625 9.421875 
Q 21.96875 7.515625 27.59375 7.515625 
L 36.8125 7.515625 
L 36.8125 0 
L 27.59375 0 
Q 17.1875 0 13.234375 3.875 
Q 9.28125 7.765625 9.28125 18.015625 
L 9.28125 47.703125 
L 2.6875 47.703125 
L 2.6875 54.6875 
L 9.28125 54.6875 
L 9.28125 70.21875 
z
" id="DejaVuSans-74"/>
      <path d="M 56.203125 29.59375 
L 56.203125 25.203125 
L 14.890625 25.203125 
Q 15.484375 15.921875 20.484375 11.0625 
Q 25.484375 6.203125 34.421875 6.203125 
Q 39.59375 6.203125 44.453125 7.46875 
Q 49.3125 8.734375 54.109375 11.28125 
L 54.109375 2.78125 
Q 49.265625 0.734375 44.1875 -0.34375 
Q 39.109375 -1.421875 33.890625 -1.421875 
Q 20.796875 -1.421875 13.15625 6.1875 
Q 5.515625 13.8125 5.515625 26.8125 
Q 5.515625 40.234375 12.765625 48.109375 
Q 20.015625 56 32.328125 56 
Q 43.359375 56 49.78125 48.890625 
Q 56.203125 41.796875 56.203125 29.59375 
z
M 47.21875 32.234375 
Q 47.125 39.59375 43.09375 43.984375 
Q 39.0625 48.390625 32.421875 48.390625 
Q 24.90625 48.390625 20.390625 44.140625 
Q 15.875 39.890625 15.1875 32.171875 
z
" id="DejaVuSans-65"/>
     </defs>
     <g transform="translate(438.824219 562.858438)scale(0.1 -0.1)">
      <use xlink:href="#DejaVuSans-44"/>
      <use x="77.001953" xlink:href="#DejaVuSans-61"/>
      <use x="138.28125" xlink:href="#DejaVuSans-74"/>
      <use x="177.490234" xlink:href="#DejaVuSans-65"/>
     </g>
    </g>
   </g>
   <g id="matplotlib.axis_2">
    <g id="ytick_1">
     <g id="line2d_27">
      <path clip-path="url(#p24cf5ed03f)" d="M 50.87 493.36 
L 850.68 493.36 
" style="fill:none;stroke:#b0b0b0;stroke-linecap:square;stroke-width:0.8;"/>
     </g>
     <g id="line2d_28">
      <defs>
       <path d="M 0 0 
L -3.5 0 
" id="mefe23a441b" style="stroke:#000000;stroke-width:0.8;"/>
      </defs>
      <g>
       <use style="stroke:#000000;stroke-width:0.8;" x="50.87" xlink:href="#mefe23a441b" y="493.36"/>
      </g>
     </g>
     <g id="text_15">
      <!-- 0 -->
      <g transform="translate(37.5075 497.159219)scale(0.1 -0.1)">
       <use xlink:href="#DejaVuSans-30"/>
      </g>
     </g>
    </g>
    <g id="ytick_2">
     <g id="line2d_29">
      <path clip-path="url(#p24cf5ed03f)" d="M 50.87 400.064 
L 850.68 400.064 
" style="fill:none;stroke:#b0b0b0;stroke-linecap:square;stroke-width:0.8;"/>
     </g>
     <g id="line2d_30">
      <g>
       <use style="stroke:#000000;stroke-width:0.8;" x="50.87" xlink:href="#mefe23a441b" y="400.064"/>
      </g>
     </g>
     <g id="text_16">
      <!-- 20 -->
      <g transform="translate(31.145 403.863219)scale(0.1 -0.1)">
       <use xlink:href="#DejaVuSans-32"/>
       <use x="63.623047" xlink:href="#DejaVuSans-30"/>
      </g>
     </g>
    </g>
    <g id="ytick_3">
     <g id="line2d_31">
      <path clip-path="url(#p24cf5ed03f)" d="M 50.87 306.768 
L 850.68 306.768 
" style="fill:none;stroke:#b0b0b0;stroke-linecap:square;stroke-width:0.8;"/>
     </g>
     <g id="line2d_32">
      <g>
       <use style="stroke:#000000;stroke-width:0.8;" x="50.87" xlink:href="#mefe23a441b" y="306.768"/>
      </g>
     </g>
     <g id="text_17">
      <!-- 40 -->
      <g transform="translate(31.145 310.567219)scale(0.1 -0.1)">
       <use xlink:href="#DejaVuSans-34"/>
       <use x="63.623047" xlink:href="#DejaVuSans-30"/>
      </g>
     </g>
    </g>
    <g id="ytick_4">
     <g id="line2d_33">
      <path clip-path="url(#p24cf5ed03f)" d="M 50.87 213.472 
L 850.68 213.472 
" style="fill:none;stroke:#b0b0b0;stroke-linecap:square;stroke-width:0.8;"/>
     </g>
     <g id="line2d_34">
      <g>
       <use style="stroke:#000000;stroke-width:0.8;" x="50.87" xlink:href="#mefe23a441b" y="213.472"/>
      </g>
     </g>
     <g id="text_18">
      <!-- 60 -->
      <g transform="translate(31.145 217.271219)scale(0.1 -0.1)">
       <use xlink:href="#DejaVuSans-36"/>
       <use x="63.623047" xlink:href="#DejaVuSans-30"/>
      </g>
     </g>
    </g>
    <g id="ytick_5">
     <g id="line2d_35">
      <path clip-path="url(#p24cf5ed03f)" d="M 50.87 120.176 
L 850.68 120.176 
" style="fill:none;stroke:#b0b0b0;stroke-linecap:square;stroke-width:0.8;"/>
     </g>
     <g id="line2d_36">
      <g>
       <use style="stroke:#000000;stroke-width:0.8;" x="50.87" xlink:href="#mefe23a441b" y="120.176"/>
      </g>
     </g>
     <g id="text_19">
      <!-- 80 -->
      <g transform="translate(31.145 123.975219)scale(0.1 -0.1)">
       <use xlink:href="#DejaVuSans-38"/>
       <use x="63.623047" xlink:href="#DejaVuSans-30"/>
      </g>
     </g>
    </g>
    <g id="ytick_6">
     <g id="line2d_37">
      <path clip-path="url(#p24cf5ed03f)" d="M 50.87 26.88 
L 850.68 26.88 
" style="fill:none;stroke:#b0b0b0;stroke-linecap:square;stroke-width:0.8;"/>
     </g>
     <g id="line2d_38">
      <g>
       <use style="stroke:#000000;stroke-width:0.8;" x="50.87" xlink:href="#mefe23a441b" y="26.88"/>
      </g>
     </g>
     <g id="text_20">
      <!-- 100 -->
      <g transform="translate(24.7825 30.679219)scale(0.1 -0.1)">
       <use xlink:href="#DejaVuSans-31"/>
       <use x="63.623047" xlink:href="#DejaVuSans-30"/>
       <use x="127.246094" xlink:href="#DejaVuSans-30"/>
      </g>
     </g>
    </g>
    <g id="text_21">
     <!-- PE Utilization [%] -->
     <defs>
      <path d="M 19.671875 64.796875 
L 19.671875 37.40625 
L 32.078125 37.40625 
Q 38.96875 37.40625 42.71875 40.96875 
Q 46.484375 44.53125 46.484375 51.125 
Q 46.484375 57.671875 42.71875 61.234375 
Q 38.96875 64.796875 32.078125 64.796875 
z
M 9.8125 72.90625 
L 32.078125 72.90625 
Q 44.34375 72.90625 50.609375 67.359375 
Q 56.890625 61.8125 56.890625 51.125 
Q 56.890625 40.328125 50.609375 34.8125 
Q 44.34375 29.296875 32.078125 29.296875 
L 19.671875 29.296875 
L 19.671875 0 
L 9.8125 0 
z
" id="DejaVuSans-50"/>
      <path d="M 9.8125 72.90625 
L 55.90625 72.90625 
L 55.90625 64.59375 
L 19.671875 64.59375 
L 19.671875 43.015625 
L 54.390625 43.015625 
L 54.390625 34.71875 
L 19.671875 34.71875 
L 19.671875 8.296875 
L 56.78125 8.296875 
L 56.78125 0 
L 9.8125 0 
z
" id="DejaVuSans-45"/>
      <path id="DejaVuSans-20"/>
      <path d="M 8.6875 72.90625 
L 18.609375 72.90625 
L 18.609375 28.609375 
Q 18.609375 16.890625 22.84375 11.734375 
Q 27.09375 6.59375 36.625 6.59375 
Q 46.09375 6.59375 50.34375 11.734375 
Q 54.59375 16.890625 54.59375 28.609375 
L 54.59375 72.90625 
L 64.5 72.90625 
L 64.5 27.390625 
Q 64.5 13.140625 57.4375 5.859375 
Q 50.390625 -1.421875 36.625 -1.421875 
Q 22.796875 -1.421875 15.734375 5.859375 
Q 8.6875 13.140625 8.6875 27.390625 
z
" id="DejaVuSans-55"/>
      <path d="M 9.421875 54.6875 
L 18.40625 54.6875 
L 18.40625 0 
L 9.421875 0 
z
M 9.421875 75.984375 
L 18.40625 75.984375 
L 18.40625 64.59375 
L 9.421875 64.59375 
z
" id="DejaVuSans-69"/>
      <path d="M 9.421875 75.984375 
L 18.40625 75.984375 
L 18.40625 0 
L 9.421875 0 
z
" id="DejaVuSans-6c"/>
      <path d="M 5.515625 54.6875 
L 48.1875 54.6875 
L 48.1875 46.484375 
L 14.40625 7.171875 
L 48.1875 7.171875 
L 48.1875 0 
L 4.296875 0 
L 4.296875 8.203125 
L 38.09375 47.515625 
L 5.515625 47.515625 
z
" id="DejaVuSans-7a"/>
      <path d="M 30.609375 48.390625 
Q 23.390625 48.390625 19.1875 42.75 
Q 14.984375 37.109375 14.984375 27.296875 
Q 14.984375 17.484375 19.15625 11.84375 
Q 23.34375 6.203125 30.609375 6.203125 
Q 37.796875 6.203125 41.984375 11.859375 
Q 46.1875 17.53125 46.1875 27.296875 
Q 46.1875 37.015625 41.984375 42.703125 
Q 37.796875 48.390625 30.609375 48.390625 
z
M 30.609375 56 
Q 42.328125 56 49.015625 48.375 
Q 55.71875 40.765625 55.71875 27.296875 
Q 55.71875 13.875 49.015625 6.21875 
Q 42.328125 -1.421875 30.609375 -1.421875 
Q 18.84375 -1.421875 12.171875 6.21875 
Q 5.515625 13.875 5.515625 27.296875 
Q 5.515625 40.765625 12.171875 48.375 
Q 18.84375 56 30.609375 56 
z
" id="DejaVuSans-6f"/>
      <path d="M 54.890625 33.015625 
L 54.890625 0 
L 45.90625 0 
L 45.90625 32.71875 
Q 45.90625 40.484375 42.875 44.328125 
Q 39.84375 48.1875 33.796875 48.1875 
Q 26.515625 48.1875 22.3125 43.546875 
Q 18.109375 38.921875 18.109375 30.90625 
L 18.109375 0 
L 9.078125 0 
L 9.078125 54.6875 
L 18.109375 54.6875 
L 18.109375 46.1875 
Q 21.34375 51.125 25.703125 53.5625 
Q 30.078125 56 35.796875 56 
Q 45.21875 56 50.046875 50.171875 
Q 54.890625 44.34375 54.890625 33.015625 
z
" id="DejaVuSans-6e"/>
      <path d="M 8.59375 75.984375 
L 29.296875 75.984375 
L 29.296875 69 
L 17.578125 69 
L 17.578125 -6.203125 
L 29.296875 -6.203125 
L 29.296875 -13.1875 
L 8.59375 -13.1875 
z
" id="DejaVuSans-5b"/>
      <path d="M 72.703125 32.078125 
Q 68.453125 32.078125 66.03125 28.46875 
Q 63.625 24.859375 63.625 18.40625 
Q 63.625 12.0625 66.03125 8.421875 
Q 68.453125 4.78125 72.703125 4.78125 
Q 76.859375 4.78125 79.265625 8.421875 
Q 81.6875 12.0625 81.6875 18.40625 
Q 81.6875 24.8125 79.265625 28.4375 
Q 76.859375 32.078125 72.703125 32.078125 
z
M 72.703125 38.28125 
Q 80.421875 38.28125 84.953125 32.90625 
Q 89.5 27.546875 89.5 18.40625 
Q 89.5 9.28125 84.9375 3.921875 
Q 80.375 -1.421875 72.703125 -1.421875 
Q 64.890625 -1.421875 60.34375 3.921875 
Q 55.8125 9.28125 55.8125 18.40625 
Q 55.8125 27.59375 60.375 32.9375 
Q 64.9375 38.28125 72.703125 38.28125 
z
M 22.3125 68.015625 
Q 18.109375 68.015625 15.6875 64.375 
Q 13.28125 60.75 13.28125 54.390625 
Q 13.28125 47.953125 15.671875 44.328125 
Q 18.0625 40.71875 22.3125 40.71875 
Q 26.5625 40.71875 28.96875 44.328125 
Q 31.390625 47.953125 31.390625 54.390625 
Q 31.390625 60.6875 28.953125 64.34375 
Q 26.515625 68.015625 22.3125 68.015625 
z
M 66.40625 74.21875 
L 74.21875 74.21875 
L 28.609375 -1.421875 
L 20.796875 -1.421875 
z
M 22.3125 74.21875 
Q 30.03125 74.21875 34.609375 68.875 
Q 39.203125 63.53125 39.203125 54.390625 
Q 39.203125 45.171875 34.640625 39.84375 
Q 30.078125 34.515625 22.3125 34.515625 
Q 14.546875 34.515625 10.03125 39.859375 
Q 5.515625 45.21875 5.515625 54.390625 
Q 5.515625 63.484375 10.046875 68.84375 
Q 14.59375 74.21875 22.3125 74.21875 
z
" id="DejaVuSans-25"/>
      <path d="M 30.421875 75.984375 
L 30.421875 -13.1875 
L 9.71875 -13.1875 
L 9.71875 -6.203125 
L 21.390625 -6.203125 
L 21.390625 69 
L 9.71875 69 
L 9.71875 75.984375 
z
" id="DejaVuSans-5d"/>
     </defs>
     <g transform="translate(18.702813 303.177031)rotate(-90)scale(0.1 -0.1)">
      <use xlink:href="#DejaVuSans-50"/>
      <use x="60.302734" xlink:href="#DejaVuSans-45"/>
      <use x="123.486328" xlink:href="#DejaVuSans-20"/>
      <use x="155.273438" xlink:href="#DejaVuSans-55"/>
      <use x="228.466797" xlink:href="#DejaVuSans-74"/>
      <use x="267.675781" xlink:href="#DejaVuSans-69"/>
      <use x="295.458984" xlink:href="#DejaVuSans-6c"/>
      <use x="323.242188" xlink:href="#DejaVuSans-69"/>
      <use x="351.025391" xlink:href="#DejaVuSans-7a"/>
      <use x="403.515625" xlink:href="#DejaVuSans-61"/>
      <use x="464.794922" xlink:href="#DejaVuSans-74"/>
      <use x="504.003906" xlink:href="#DejaVuSans-69"/>
      <use x="531.787109" xlink:href="#DejaVuSans-6f"/>
      <use x="592.96875" xlink:href="#DejaVuSans-6e"/>
      <use x="656.347656" xlink:href="#DejaVuSans-20"/>
      <use x="688.134766" xlink:href="#DejaVuSans-5b"/>
      <use x="727.148438" xlink:href="#DejaVuSans-25"/>
      <use x="822.167969" xlink:href="#DejaVuSans-5d"/>
     </g>
    </g>
   </g>
   <g id="line2d_39">
    <path clip-path="url(#p24cf5ed03f)" d="M 329.591667 481.144055 
L 390.183333 482.660115 
L 450.775 478.31602 
L 511.366667 478.08278 
L 571.958333 478.08278 
L 632.55 472.563464 
L 693.141667 472.563464 
L 814.325 472.563464 
" style="fill:none;stroke:#1f77b4;stroke-linecap:square;stroke-width:1.5;"/>
    <defs>
     <path d="M 0 3 
C 0.795609 3 1.55874 2.683901 2.12132 2.12132 
C 2.683901 1.55874 3 0.795609 3 0 
C 3 -0.795609 2.683901 -1.55874 2.12132 -2.12132 
C 1.55874 -2.683901 0.795609 -3 0 -3 
C -0.795609 -3 -1.55874 -2.683901 -2.12132 -2.12132 
C -2.683901 -1.55874 -3 -0.795609 -3 0 
C -3 0.795609 -2.683901 1.55874 -2.12132 2.12132 
C -1.55874 2.683901 -0.795609 3 0 3 
z
" id="m654ba01b3f" style="stroke:#1f77b4;"/>
    </defs>
    <g clip-path="url(#p24cf5ed03f)">
     <use style="fill:#1f77b4;stroke:#1f77b4;" x="329.591667" xlink:href="#m654ba01b3f" y="481.144055"/>
     <use style="fill:#1f77b4;stroke:#1f77b4;" x="390.183333" xlink:href="#m654ba01b3f" y="482.660115"/>
     <use style="fill:#1f77b4;stroke:#1f77b4;" x="450.775" xlink:href="#m654ba01b3f" y="478.31602"/>
     <use style="fill:#1f77b4;stroke:#1f77b4;" x="511.366667" xlink:href="#m654ba01b3f" y="478.08278"/>
     <use style="fill:#1f77b4;stroke:#1f77b4;" x="571.958333" xlink:href="#m654ba01b3f" y="478.08278"/>
     <use style="fill:#1f77b4;stroke:#1f77b4;" x="632.55" xlink:href="#m654ba01b3f" y="472.563464"/>
     <use style="fill:#1f77b4;stroke:#1f77b4;" x="693.141667" xlink:href="#m654ba01b3f" y="472.563464"/>
     <use style="fill:#1f77b4;stroke:#1f77b4;" x="814.325" xlink:href="#m654ba01b3f" y="472.563464"/>
    </g>
   </g>
   <g id="line2d_40"/>
   <g id="line2d_41"/>
   <g id="line2d_42">
    <path clip-path="url(#p24cf5ed03f)" d="M 632.55 456.125359 
L 693.141667 456.125359 
L 814.325 456.125359 
" style="fill:none;stroke:#d62728;stroke-linecap:square;stroke-width:1.5;"/>
    <defs>
     <path d="M 0 3 
C 0.795609 3 1.55874 2.683901 2.12132 2.12132 
C 2.683901 1.55874 3 0.795609 3 0 
C 3 -0.795609 2.683901 -1.55874 2.12132 -2.12132 
C 1.55874 -2.683901 0.795609 -3 0 -3 
C -0.795609 -3 -1.55874 -2.683901 -2.12132 -2.12132 
C -2.683901 -1.55874 -3 -0.795609 -3 0 
C -3 0.795609 -2.683901 1.55874 -2.12132 2.12132 
C -1.55874 2.683901 -0.795609 3 0 3 
z
" id="m4c971dc923" style="stroke:#d62728;"/>
    </defs>
    <g clip-path="url(#p24cf5ed03f)">
     <use style="fill:#d62728;stroke:#d62728;" x="632.55" xlink:href="#m4c971dc923" y="456.125359"/>
     <use style="fill:#d62728;stroke:#d62728;" x="693.141667" xlink:href="#m4c971dc923" y="456.125359"/>
     <use style="fill:#d62728;stroke:#d62728;" x="814.325" xlink:href="#m4c971dc923" y="456.125359"/>
    </g>
   </g>
   <g id="line2d_43"/>
   <g id="line2d_44"/>
   <g id="line2d_45">
    <path clip-path="url(#p24cf5ed03f)" d="M 87.225 428.665055 
L 147.816667 428.665055 
L 208.408333 374.87408 
L 269 374.87408 
L 632.55 326.178114 
L 693.141667 326.178114 
L 753.733333 326.178114 
L 814.325 326.178114 
" style="fill:none;stroke:#e377c2;stroke-linecap:square;stroke-width:1.5;"/>
    <defs>
     <path d="M 0 3 
C 0.795609 3 1.55874 2.683901 2.12132 2.12132 
C 2.683901 1.55874 3 0.795609 3 0 
C 3 -0.795609 2.683901 -1.55874 2.12132 -2.12132 
C 1.55874 -2.683901 0.795609 -3 0 -3 
C -0.795609 -3 -1.55874 -2.683901 -2.12132 -2.12132 
C -2.683901 -1.55874 -3 -0.795609 -3 0 
C -3 0.795609 -2.683901 1.55874 -2.12132 2.12132 
C -1.55874 2.683901 -0.795609 3 0 3 
z
" id="m079ae4e384" style="stroke:#e377c2;"/>
    </defs>
    <g clip-path="url(#p24cf5ed03f)">
     <use style="fill:#e377c2;stroke:#e377c2;" x="87.225" xlink:href="#m079ae4e384" y="428.665055"/>
     <use style="fill:#e377c2;stroke:#e377c2;" x="147.816667" xlink:href="#m079ae4e384" y="428.665055"/>
     <use style="fill:#e377c2;stroke:#e377c2;" x="208.408333" xlink:href="#m079ae4e384" y="374.87408"/>
     <use style="fill:#e377c2;stroke:#e377c2;" x="269" xlink:href="#m079ae4e384" y="374.87408"/>
     <use style="fill:#e377c2;stroke:#e377c2;" x="632.55" xlink:href="#m079ae4e384" y="326.178114"/>
     <use style="fill:#e377c2;stroke:#e377c2;" x="693.141667" xlink:href="#m079ae4e384" y="326.178114"/>
     <use style="fill:#e377c2;stroke:#e377c2;" x="753.733333" xlink:href="#m079ae4e384" y="326.178114"/>
     <use style="fill:#e377c2;stroke:#e377c2;" x="814.325" xlink:href="#m079ae4e384" y="326.178114"/>
    </g>
   </g>
   <g id="line2d_46"/>
   <g id="line2d_47"/>
   <g id="patch_3">
    <path d="M 50.87 493.36 
L 50.87 26.88 
" style="fill:none;stroke:#000000;stroke-linecap:square;stroke-linejoin:miter;stroke-width:0.8;"/>
   </g>
   <g id="patch_4">
    <path d="M 850.68 493.36 
L 850.68 26.88 
" style="fill:none;stroke:#000000;stroke-linecap:square;stroke-linejoin:miter;stroke-width:0.8;"/>
   </g>
   <g id="patch_5">
    <path d="M 50.87 493.36 
L 850.68 493.36 
" style="fill:none;stroke:#000000;stroke-linecap:square;stroke-linejoin:miter;stroke-width:0.8;"/>
   </g>
   <g id="patch_6">
    <path d="M 50.87 26.88 
L 850.68 26.88 
" style="fill:none;stroke:#000000;stroke-linecap:square;stroke-linejoin:miter;stroke-width:0.8;"/>
   </g>
   <g id="patch_7">
    <path d="M 314.044306 467.327945 
Q 321.071174 473.572348 327.262312 479.074082 
" style="fill:none;stroke:#000000;stroke-linecap:round;"/>
    <path d="M 325.600841 474.922033 
L 327.262312 479.074082 
L 322.94379 477.91203 
" style="fill:none;stroke:#000000;stroke-linecap:round;"/>
   </g>
   <g id="text_22">
    <g id="patch_8">
     <path d="M 293.688542 466.144055 
L 309.591667 466.144055 
Q 314.591667 466.144055 314.591667 461.144055 
L 314.591667 451.46593 
Q 314.591667 446.46593 309.591667 446.46593 
L 293.688542 446.46593 
Q 288.688542 446.46593 288.688542 451.46593 
L 288.688542 461.144055 
Q 288.688542 466.144055 293.688542 466.144055 
z
" style="fill:#ffffe0;opacity:0.5;stroke:#000000;stroke-linejoin:miter;"/>
    </g>
    <!-- 2.6 -->
    <defs>
     <path d="M 10.6875 12.40625 
L 21 12.40625 
L 21 0 
L 10.6875 0 
z
" id="DejaVuSans-2e"/>
    </defs>
    <g transform="translate(293.688542 459.064368)scale(0.1 -0.1)">
     <use xlink:href="#DejaVuSans-32"/>
     <use x="63.623047" xlink:href="#DejaVuSans-2e"/>
     <use x="95.410156" xlink:href="#DejaVuSans-36"/>
    </g>
   </g>
   <g id="patch_9">
    <path d="M 374.635973 468.844005 
Q 381.662841 475.088408 387.853979 480.590142 
" style="fill:none;stroke:#000000;stroke-linecap:round;"/>
    <path d="M 386.192508 476.438093 
L 387.853979 480.590142 
L 383.535457 479.42809 
" style="fill:none;stroke:#000000;stroke-linecap:round;"/>
   </g>
   <g id="text_23">
    <g id="patch_10">
     <path d="M 354.280208 467.660115 
L 370.183333 467.660115 
Q 375.183333 467.660115 375.183333 462.660115 
L 375.183333 452.98199 
Q 375.183333 447.98199 370.183333 447.98199 
L 354.280208 447.98199 
Q 349.280208 447.98199 349.280208 452.98199 
L 349.280208 462.660115 
Q 349.280208 467.660115 354.280208 467.660115 
z
" style="fill:#ffffe0;opacity:0.5;stroke:#000000;stroke-linejoin:miter;"/>
    </g>
    <!-- 2.3 -->
    <g transform="translate(354.280208 460.580427)scale(0.1 -0.1)">
     <use xlink:href="#DejaVuSans-32"/>
     <use x="63.623047" xlink:href="#DejaVuSans-2e"/>
     <use x="95.410156" xlink:href="#DejaVuSans-33"/>
    </g>
   </g>
   <g id="patch_11">
    <path d="M 435.227639 464.49991 
Q 442.254507 470.744313 448.445646 476.246047 
" style="fill:none;stroke:#000000;stroke-linecap:round;"/>
    <path d="M 446.784174 472.093998 
L 448.445646 476.246047 
L 444.127124 475.083995 
" style="fill:none;stroke:#000000;stroke-linecap:round;"/>
   </g>
   <g id="text_24">
    <g id="patch_12">
     <path d="M 414.871875 463.31602 
L 430.775 463.31602 
Q 435.775 463.31602 435.775 458.31602 
L 435.775 448.637895 
Q 435.775 443.637895 430.775 443.637895 
L 414.871875 443.637895 
Q 409.871875 443.637895 409.871875 448.637895 
L 409.871875 458.31602 
Q 409.871875 463.31602 414.871875 463.31602 
z
" style="fill:#ffffe0;opacity:0.5;stroke:#000000;stroke-linejoin:miter;"/>
    </g>
    <!-- 3.2 -->
    <g transform="translate(414.871875 456.236333)scale(0.1 -0.1)">
     <use xlink:href="#DejaVuSans-33"/>
     <use x="63.623047" xlink:href="#DejaVuSans-2e"/>
     <use x="95.410156" xlink:href="#DejaVuSans-32"/>
    </g>
   </g>
   <g id="patch_13">
    <path d="M 495.819306 464.26667 
Q 502.846174 470.511073 509.037312 476.012807 
" style="fill:none;stroke:#000000;stroke-linecap:round;"/>
    <path d="M 507.375841 471.860758 
L 509.037312 476.012807 
L 504.71879 474.850755 
" style="fill:none;stroke:#000000;stroke-linecap:round;"/>
   </g>
   <g id="text_25">
    <g id="patch_14">
     <path d="M 475.463542 463.08278 
L 491.366667 463.08278 
Q 496.366667 463.08278 496.366667 458.08278 
L 496.366667 448.404655 
Q 496.366667 443.404655 491.366667 443.404655 
L 475.463542 443.404655 
Q 470.463542 443.404655 470.463542 448.404655 
L 470.463542 458.08278 
Q 470.463542 463.08278 475.463542 463.08278 
z
" style="fill:#ffffe0;opacity:0.5;stroke:#000000;stroke-linejoin:miter;"/>
    </g>
    <!-- 3.3 -->
    <g transform="translate(475.463542 456.003092)scale(0.1 -0.1)">
     <use xlink:href="#DejaVuSans-33"/>
     <use x="63.623047" xlink:href="#DejaVuSans-2e"/>
     <use x="95.410156" xlink:href="#DejaVuSans-33"/>
    </g>
   </g>
   <g id="patch_15">
    <path d="M 556.410973 464.26667 
Q 563.437841 470.511073 569.628979 476.012807 
" style="fill:none;stroke:#000000;stroke-linecap:round;"/>
    <path d="M 567.967508 471.860758 
L 569.628979 476.012807 
L 565.310457 474.850755 
" style="fill:none;stroke:#000000;stroke-linecap:round;"/>
   </g>
   <g id="text_26">
    <g id="patch_16">
     <path d="M 536.055208 463.08278 
L 551.958333 463.08278 
Q 556.958333 463.08278 556.958333 458.08278 
L 556.958333 448.404655 
Q 556.958333 443.404655 551.958333 443.404655 
L 536.055208 443.404655 
Q 531.055208 443.404655 531.055208 448.404655 
L 531.055208 458.08278 
Q 531.055208 463.08278 536.055208 463.08278 
z
" style="fill:#ffffe0;opacity:0.5;stroke:#000000;stroke-linejoin:miter;"/>
    </g>
    <!-- 3.3 -->
    <g transform="translate(536.055208 456.003092)scale(0.1 -0.1)">
     <use xlink:href="#DejaVuSans-33"/>
     <use x="63.623047" xlink:href="#DejaVuSans-2e"/>
     <use x="95.410156" xlink:href="#DejaVuSans-33"/>
    </g>
   </g>
   <g id="patch_17">
    <path d="M 617.002639 458.747353 
Q 624.029507 464.991756 630.220646 470.493491 
" style="fill:none;stroke:#000000;stroke-linecap:round;"/>
    <path d="M 628.559174 466.341442 
L 630.220646 470.493491 
L 625.902124 469.331438 
" style="fill:none;stroke:#000000;stroke-linecap:round;"/>
   </g>
   <g id="text_27">
    <g id="patch_18">
     <path d="M 596.646875 457.563464 
L 612.55 457.563464 
Q 617.55 457.563464 617.55 452.563464 
L 617.55 442.885339 
Q 617.55 437.885339 612.55 437.885339 
L 596.646875 437.885339 
Q 591.646875 437.885339 591.646875 442.885339 
L 591.646875 452.563464 
Q 591.646875 457.563464 596.646875 457.563464 
z
" style="fill:#ffffe0;opacity:0.5;stroke:#000000;stroke-linejoin:miter;"/>
    </g>
    <!-- 4.5 -->
    <g transform="translate(596.646875 450.483776)scale(0.1 -0.1)">
     <use xlink:href="#DejaVuSans-34"/>
     <use x="63.623047" xlink:href="#DejaVuSans-2e"/>
     <use x="95.410156" xlink:href="#DejaVuSans-35"/>
    </g>
   </g>
   <g id="patch_19">
    <path d="M 677.594306 458.747353 
Q 684.621174 464.991756 690.812312 470.493491 
" style="fill:none;stroke:#000000;stroke-linecap:round;"/>
    <path d="M 689.150841 466.341442 
L 690.812312 470.493491 
L 686.49379 469.331438 
" style="fill:none;stroke:#000000;stroke-linecap:round;"/>
   </g>
   <g id="text_28">
    <g id="patch_20">
     <path d="M 657.238542 457.563464 
L 673.141667 457.563464 
Q 678.141667 457.563464 678.141667 452.563464 
L 678.141667 442.885339 
Q 678.141667 437.885339 673.141667 437.885339 
L 657.238542 437.885339 
Q 652.238542 437.885339 652.238542 442.885339 
L 652.238542 452.563464 
Q 652.238542 457.563464 657.238542 457.563464 
z
" style="fill:#ffffe0;opacity:0.5;stroke:#000000;stroke-linejoin:miter;"/>
    </g>
    <!-- 4.5 -->
    <g transform="translate(657.238542 450.483776)scale(0.1 -0.1)">
     <use xlink:href="#DejaVuSans-34"/>
     <use x="63.623047" xlink:href="#DejaVuSans-2e"/>
     <use x="95.410156" xlink:href="#DejaVuSans-35"/>
    </g>
   </g>
   <g id="patch_21">
    <path d="M 798.777639 458.747353 
Q 805.804507 464.991756 811.995646 470.493491 
" style="fill:none;stroke:#000000;stroke-linecap:round;"/>
    <path d="M 810.334174 466.341442 
L 811.995646 470.493491 
L 807.677124 469.331438 
" style="fill:none;stroke:#000000;stroke-linecap:round;"/>
   </g>
   <g id="text_29">
    <g id="patch_22">
     <path d="M 778.421875 457.563464 
L 794.325 457.563464 
Q 799.325 457.563464 799.325 452.563464 
L 799.325 442.885339 
Q 799.325 437.885339 794.325 437.885339 
L 778.421875 437.885339 
Q 773.421875 437.885339 773.421875 442.885339 
L 773.421875 452.563464 
Q 773.421875 457.563464 778.421875 457.563464 
z
" style="fill:#ffffe0;opacity:0.5;stroke:#000000;stroke-linejoin:miter;"/>
    </g>
    <!-- 4.5 -->
    <g transform="translate(778.421875 450.483776)scale(0.1 -0.1)">
     <use xlink:href="#DejaVuSans-34"/>
     <use x="63.623047" xlink:href="#DejaVuSans-2e"/>
     <use x="95.410156" xlink:href="#DejaVuSans-35"/>
    </g>
   </g>
   <g id="patch_23">
    <path d="M 617.002639 442.309249 
Q 624.029507 448.553652 630.220646 454.055386 
" style="fill:none;stroke:#000000;stroke-linecap:round;"/>
    <path d="M 628.559174 449.903337 
L 630.220646 454.055386 
L 625.902124 452.893334 
" style="fill:none;stroke:#000000;stroke-linecap:round;"/>
   </g>
   <g id="text_30">
    <g id="patch_24">
     <path d="M 596.646875 441.125359 
L 612.55 441.125359 
Q 617.55 441.125359 617.55 436.125359 
L 617.55 426.447234 
Q 617.55 421.447234 612.55 421.447234 
L 596.646875 421.447234 
Q 591.646875 421.447234 591.646875 426.447234 
L 591.646875 436.125359 
Q 591.646875 441.125359 596.646875 441.125359 
z
" style="fill:#ffffe0;opacity:0.5;stroke:#000000;stroke-linejoin:miter;"/>
    </g>
    <!-- 8.0 -->
    <g transform="translate(596.646875 434.045672)scale(0.1 -0.1)">
     <use xlink:href="#DejaVuSans-38"/>
     <use x="63.623047" xlink:href="#DejaVuSans-2e"/>
     <use x="95.410156" xlink:href="#DejaVuSans-30"/>
    </g>
   </g>
   <g id="patch_25">
    <path d="M 677.594306 442.309249 
Q 684.621174 448.553652 690.812312 454.055386 
" style="fill:none;stroke:#000000;stroke-linecap:round;"/>
    <path d="M 689.150841 449.903337 
L 690.812312 454.055386 
L 686.49379 452.893334 
" style="fill:none;stroke:#000000;stroke-linecap:round;"/>
   </g>
   <g id="text_31">
    <g id="patch_26">
     <path d="M 657.238542 441.125359 
L 673.141667 441.125359 
Q 678.141667 441.125359 678.141667 436.125359 
L 678.141667 426.447234 
Q 678.141667 421.447234 673.141667 421.447234 
L 657.238542 421.447234 
Q 652.238542 421.447234 652.238542 426.447234 
L 652.238542 436.125359 
Q 652.238542 441.125359 657.238542 441.125359 
z
" style="fill:#ffffe0;opacity:0.5;stroke:#000000;stroke-linejoin:miter;"/>
    </g>
    <!-- 8.0 -->
    <g transform="translate(657.238542 434.045672)scale(0.1 -0.1)">
     <use xlink:href="#DejaVuSans-38"/>
     <use x="63.623047" xlink:href="#DejaVuSans-2e"/>
     <use x="95.410156" xlink:href="#DejaVuSans-30"/>
    </g>
   </g>
   <g id="patch_27">
    <path d="M 798.777639 442.309249 
Q 805.804507 448.553652 811.995646 454.055386 
" style="fill:none;stroke:#000000;stroke-linecap:round;"/>
    <path d="M 810.334174 449.903337 
L 811.995646 454.055386 
L 807.677124 452.893334 
" style="fill:none;stroke:#000000;stroke-linecap:round;"/>
   </g>
   <g id="text_32">
    <g id="patch_28">
     <path d="M 778.421875 441.125359 
L 794.325 441.125359 
Q 799.325 441.125359 799.325 436.125359 
L 799.325 426.447234 
Q 799.325 421.447234 794.325 421.447234 
L 778.421875 421.447234 
Q 773.421875 421.447234 773.421875 426.447234 
L 773.421875 436.125359 
Q 773.421875 441.125359 778.421875 441.125359 
z
" style="fill:#ffffe0;opacity:0.5;stroke:#000000;stroke-linejoin:miter;"/>
    </g>
    <!-- 8.0 -->
    <g transform="translate(778.421875 434.045672)scale(0.1 -0.1)">
     <use xlink:href="#DejaVuSans-38"/>
     <use x="63.623047" xlink:href="#DejaVuSans-2e"/>
     <use x="95.410156" xlink:href="#DejaVuSans-30"/>
    </g>
   </g>
   <g id="patch_29">
    <path d="M 70.37423 415.220804 
Q 78.016934 421.318474 84.785682 426.718865 
" style="fill:none;stroke:#000000;stroke-linecap:round;"/>
    <path d="M 82.90625 422.660819 
L 84.785682 426.718865 
L 80.411586 425.787583 
" style="fill:none;stroke:#000000;stroke-linecap:round;"/>
   </g>
   <g id="text_33">
    <g id="patch_30">
     <path d="M 44.959375 413.665055 
L 67.225 413.665055 
Q 72.225 413.665055 72.225 408.665055 
L 72.225 398.98693 
Q 72.225 393.98693 67.225 393.98693 
L 44.959375 393.98693 
Q 39.959375 393.98693 39.959375 398.98693 
L 39.959375 408.665055 
Q 39.959375 413.665055 44.959375 413.665055 
z
" style="fill:#ffffe0;opacity:0.5;stroke:#000000;stroke-linejoin:miter;"/>
    </g>
    <!-- 13.9 -->
    <defs>
     <path d="M 10.984375 1.515625 
L 10.984375 10.5 
Q 14.703125 8.734375 18.5 7.8125 
Q 22.3125 6.890625 25.984375 6.890625 
Q 35.75 6.890625 40.890625 13.453125 
Q 46.046875 20.015625 46.78125 33.40625 
Q 43.953125 29.203125 39.59375 26.953125 
Q 35.25 24.703125 29.984375 24.703125 
Q 19.046875 24.703125 12.671875 31.3125 
Q 6.296875 37.9375 6.296875 49.421875 
Q 6.296875 60.640625 12.9375 67.421875 
Q 19.578125 74.21875 30.609375 74.21875 
Q 43.265625 74.21875 49.921875 64.515625 
Q 56.59375 54.828125 56.59375 36.375 
Q 56.59375 19.140625 48.40625 8.859375 
Q 40.234375 -1.421875 26.421875 -1.421875 
Q 22.703125 -1.421875 18.890625 -0.6875 
Q 15.09375 0.046875 10.984375 1.515625 
z
M 30.609375 32.421875 
Q 37.25 32.421875 41.125 36.953125 
Q 45.015625 41.5 45.015625 49.421875 
Q 45.015625 57.28125 41.125 61.84375 
Q 37.25 66.40625 30.609375 66.40625 
Q 23.96875 66.40625 20.09375 61.84375 
Q 16.21875 57.28125 16.21875 49.421875 
Q 16.21875 41.5 20.09375 36.953125 
Q 23.96875 32.421875 30.609375 32.421875 
z
" id="DejaVuSans-39"/>
    </defs>
    <g transform="translate(44.959375 406.585367)scale(0.1 -0.1)">
     <use xlink:href="#DejaVuSans-31"/>
     <use x="63.623047" xlink:href="#DejaVuSans-33"/>
     <use x="127.246094" xlink:href="#DejaVuSans-2e"/>
     <use x="159.033203" xlink:href="#DejaVuSans-39"/>
    </g>
   </g>
   <g id="patch_31">
    <path d="M 130.965896 415.220804 
Q 138.608601 421.318474 145.377349 426.718865 
" style="fill:none;stroke:#000000;stroke-linecap:round;"/>
    <path d="M 143.497916 422.660819 
L 145.377349 426.718865 
L 141.003253 425.787583 
" style="fill:none;stroke:#000000;stroke-linecap:round;"/>
   </g>
   <g id="text_34">
    <g id="patch_32">
     <path d="M 105.551042 413.665055 
L 127.816667 413.665055 
Q 132.816667 413.665055 132.816667 408.665055 
L 132.816667 398.98693 
Q 132.816667 393.98693 127.816667 393.98693 
L 105.551042 393.98693 
Q 100.551042 393.98693 100.551042 398.98693 
L 100.551042 408.665055 
Q 100.551042 413.665055 105.551042 413.665055 
z
" style="fill:#ffffe0;opacity:0.5;stroke:#000000;stroke-linejoin:miter;"/>
    </g>
    <!-- 13.9 -->
    <g transform="translate(105.551042 406.585367)scale(0.1 -0.1)">
     <use xlink:href="#DejaVuSans-31"/>
     <use x="63.623047" xlink:href="#DejaVuSans-33"/>
     <use x="127.246094" xlink:href="#DejaVuSans-2e"/>
     <use x="159.033203" xlink:href="#DejaVuSans-39"/>
    </g>
   </g>
   <g id="patch_33">
    <path d="M 191.557563 361.429829 
Q 199.200268 367.527499 205.969015 372.92789 
" style="fill:none;stroke:#000000;stroke-linecap:round;"/>
    <path d="M 204.089583 368.869844 
L 205.969015 372.92789 
L 201.594919 371.996608 
" style="fill:none;stroke:#000000;stroke-linecap:round;"/>
   </g>
   <g id="text_35">
    <g id="patch_34">
     <path d="M 166.142708 359.87408 
L 188.408333 359.87408 
Q 193.408333 359.87408 193.408333 354.87408 
L 193.408333 345.195955 
Q 193.408333 340.195955 188.408333 340.195955 
L 166.142708 340.195955 
Q 161.142708 340.195955 161.142708 345.195955 
L 161.142708 354.87408 
Q 161.142708 359.87408 166.142708 359.87408 
z
" style="fill:#ffffe0;opacity:0.5;stroke:#000000;stroke-linejoin:miter;"/>
    </g>
    <!-- 25.4 -->
    <g transform="translate(166.142708 352.794392)scale(0.1 -0.1)">
     <use xlink:href="#DejaVuSans-32"/>
     <use x="63.623047" xlink:href="#DejaVuSans-35"/>
     <use x="127.246094" xlink:href="#DejaVuSans-2e"/>
     <use x="159.033203" xlink:href="#DejaVuSans-34"/>
    </g>
   </g>
   <g id="patch_35">
    <path d="M 252.14923 361.429829 
Q 259.791934 367.527499 266.560682 372.92789 
" style="fill:none;stroke:#000000;stroke-linecap:round;"/>
    <path d="M 264.68125 368.869844 
L 266.560682 372.92789 
L 262.186586 371.996608 
" style="fill:none;stroke:#000000;stroke-linecap:round;"/>
   </g>
   <g id="text_36">
    <g id="patch_36">
     <path d="M 226.734375 359.87408 
L 249 359.87408 
Q 254 359.87408 254 354.87408 
L 254 345.195955 
Q 254 340.195955 249 340.195955 
L 226.734375 340.195955 
Q 221.734375 340.195955 221.734375 345.195955 
L 221.734375 354.87408 
Q 221.734375 359.87408 226.734375 359.87408 
z
" style="fill:#ffffe0;opacity:0.5;stroke:#000000;stroke-linejoin:miter;"/>
    </g>
    <!-- 25.4 -->
    <g transform="translate(226.734375 352.794392)scale(0.1 -0.1)">
     <use xlink:href="#DejaVuSans-32"/>
     <use x="63.623047" xlink:href="#DejaVuSans-35"/>
     <use x="127.246094" xlink:href="#DejaVuSans-2e"/>
     <use x="159.033203" xlink:href="#DejaVuSans-34"/>
    </g>
   </g>
   <g id="patch_37">
    <path d="M 615.69923 312.733863 
Q 623.341934 318.831533 630.110682 324.231923 
" style="fill:none;stroke:#000000;stroke-linecap:round;"/>
    <path d="M 628.23125 320.173878 
L 630.110682 324.231923 
L 625.736586 323.300642 
" style="fill:none;stroke:#000000;stroke-linecap:round;"/>
   </g>
   <g id="text_37">
    <g id="patch_38">
     <path d="M 590.284375 311.178114 
L 612.55 311.178114 
Q 617.55 311.178114 617.55 306.178114 
L 617.55 296.499989 
Q 617.55 291.499989 612.55 291.499989 
L 590.284375 291.499989 
Q 585.284375 291.499989 585.284375 296.499989 
L 585.284375 306.178114 
Q 585.284375 311.178114 590.284375 311.178114 
z
" style="fill:#ffffe0;opacity:0.5;stroke:#000000;stroke-linejoin:miter;"/>
    </g>
    <!-- 35.8 -->
    <g transform="translate(590.284375 304.098426)scale(0.1 -0.1)">
     <use xlink:href="#DejaVuSans-33"/>
     <use x="63.623047" xlink:href="#DejaVuSans-35"/>
     <use x="127.246094" xlink:href="#DejaVuSans-2e"/>
     <use x="159.033203" xlink:href="#DejaVuSans-38"/>
    </g>
   </g>
   <g id="patch_39">
    <path d="M 676.290896 312.733863 
Q 683.933601 318.831533 690.702349 324.231923 
" style="fill:none;stroke:#000000;stroke-linecap:round;"/>
    <path d="M 688.822916 320.173878 
L 690.702349 324.231923 
L 686.328253 323.300642 
" style="fill:none;stroke:#000000;stroke-linecap:round;"/>
   </g>
   <g id="text_38">
    <g id="patch_40">
     <path d="M 650.876042 311.178114 
L 673.141667 311.178114 
Q 678.141667 311.178114 678.141667 306.178114 
L 678.141667 296.499989 
Q 678.141667 291.499989 673.141667 291.499989 
L 650.876042 291.499989 
Q 645.876042 291.499989 645.876042 296.499989 
L 645.876042 306.178114 
Q 645.876042 311.178114 650.876042 311.178114 
z
" style="fill:#ffffe0;opacity:0.5;stroke:#000000;stroke-linejoin:miter;"/>
    </g>
    <!-- 35.8 -->
    <g transform="translate(650.876042 304.098426)scale(0.1 -0.1)">
     <use xlink:href="#DejaVuSans-33"/>
     <use x="63.623047" xlink:href="#DejaVuSans-35"/>
     <use x="127.246094" xlink:href="#DejaVuSans-2e"/>
     <use x="159.033203" xlink:href="#DejaVuSans-38"/>
    </g>
   </g>
   <g id="patch_41">
    <path d="M 736.882563 312.733863 
Q 744.525268 318.831533 751.294015 324.231923 
" style="fill:none;stroke:#000000;stroke-linecap:round;"/>
    <path d="M 749.414583 320.173878 
L 751.294015 324.231923 
L 746.919919 323.300642 
" style="fill:none;stroke:#000000;stroke-linecap:round;"/>
   </g>
   <g id="text_39">
    <g id="patch_42">
     <path d="M 711.467708 311.178114 
L 733.733333 311.178114 
Q 738.733333 311.178114 738.733333 306.178114 
L 738.733333 296.499989 
Q 738.733333 291.499989 733.733333 291.499989 
L 711.467708 291.499989 
Q 706.467708 291.499989 706.467708 296.499989 
L 706.467708 306.178114 
Q 706.467708 311.178114 711.467708 311.178114 
z
" style="fill:#ffffe0;opacity:0.5;stroke:#000000;stroke-linejoin:miter;"/>
    </g>
    <!-- 35.8 -->
    <g transform="translate(711.467708 304.098426)scale(0.1 -0.1)">
     <use xlink:href="#DejaVuSans-33"/>
     <use x="63.623047" xlink:href="#DejaVuSans-35"/>
     <use x="127.246094" xlink:href="#DejaVuSans-2e"/>
     <use x="159.033203" xlink:href="#DejaVuSans-38"/>
    </g>
   </g>
   <g id="patch_43">
    <path d="M 797.47423 312.733863 
Q 805.116934 318.831533 811.885682 324.231923 
" style="fill:none;stroke:#000000;stroke-linecap:round;"/>
    <path d="M 810.00625 320.173878 
L 811.885682 324.231923 
L 807.511586 323.300642 
" style="fill:none;stroke:#000000;stroke-linecap:round;"/>
   </g>
   <g id="text_40">
    <g id="patch_44">
     <path d="M 772.059375 311.178114 
L 794.325 311.178114 
Q 799.325 311.178114 799.325 306.178114 
L 799.325 296.499989 
Q 799.325 291.499989 794.325 291.499989 
L 772.059375 291.499989 
Q 767.059375 291.499989 767.059375 296.499989 
L 767.059375 306.178114 
Q 767.059375 311.178114 772.059375 311.178114 
z
" style="fill:#ffffe0;opacity:0.5;stroke:#000000;stroke-linejoin:miter;"/>
    </g>
    <!-- 35.8 -->
    <g transform="translate(772.059375 304.098426)scale(0.1 -0.1)">
     <use xlink:href="#DejaVuSans-33"/>
     <use x="63.623047" xlink:href="#DejaVuSans-35"/>
     <use x="127.246094" xlink:href="#DejaVuSans-2e"/>
     <use x="159.033203" xlink:href="#DejaVuSans-38"/>
    </g>
   </g>
   <g id="text_41">
    <!-- PE utilization historical data -->
    <defs>
     <path d="M 8.5 21.578125 
L 8.5 54.6875 
L 17.484375 54.6875 
L 17.484375 21.921875 
Q 17.484375 14.15625 20.5 10.265625 
Q 23.53125 6.390625 29.59375 6.390625 
Q 36.859375 6.390625 41.078125 11.03125 
Q 45.3125 15.671875 45.3125 23.6875 
L 45.3125 54.6875 
L 54.296875 54.6875 
L 54.296875 0 
L 45.3125 0 
L 45.3125 8.40625 
Q 42.046875 3.421875 37.71875 1 
Q 33.40625 -1.421875 27.6875 -1.421875 
Q 18.265625 -1.421875 13.375 4.4375 
Q 8.5 10.296875 8.5 21.578125 
z
M 31.109375 56 
z
" id="DejaVuSans-75"/>
     <path d="M 54.890625 33.015625 
L 54.890625 0 
L 45.90625 0 
L 45.90625 32.71875 
Q 45.90625 40.484375 42.875 44.328125 
Q 39.84375 48.1875 33.796875 48.1875 
Q 26.515625 48.1875 22.3125 43.546875 
Q 18.109375 38.921875 18.109375 30.90625 
L 18.109375 0 
L 9.078125 0 
L 9.078125 75.984375 
L 18.109375 75.984375 
L 18.109375 46.1875 
Q 21.34375 51.125 25.703125 53.5625 
Q 30.078125 56 35.796875 56 
Q 45.21875 56 50.046875 50.171875 
Q 54.890625 44.34375 54.890625 33.015625 
z
" id="DejaVuSans-68"/>
     <path d="M 44.28125 53.078125 
L 44.28125 44.578125 
Q 40.484375 46.53125 36.375 47.5 
Q 32.28125 48.484375 27.875 48.484375 
Q 21.1875 48.484375 17.84375 46.4375 
Q 14.5 44.390625 14.5 40.28125 
Q 14.5 37.15625 16.890625 35.375 
Q 19.28125 33.59375 26.515625 31.984375 
L 29.59375 31.296875 
Q 39.15625 29.25 43.1875 25.515625 
Q 47.21875 21.78125 47.21875 15.09375 
Q 47.21875 7.46875 41.1875 3.015625 
Q 35.15625 -1.421875 24.609375 -1.421875 
Q 20.21875 -1.421875 15.453125 -0.5625 
Q 10.6875 0.296875 5.421875 2 
L 5.421875 11.28125 
Q 10.40625 8.6875 15.234375 7.390625 
Q 20.0625 6.109375 24.8125 6.109375 
Q 31.15625 6.109375 34.5625 8.28125 
Q 37.984375 10.453125 37.984375 14.40625 
Q 37.984375 18.0625 35.515625 20.015625 
Q 33.0625 21.96875 24.703125 23.78125 
L 21.578125 24.515625 
Q 13.234375 26.265625 9.515625 29.90625 
Q 5.8125 33.546875 5.8125 39.890625 
Q 5.8125 47.609375 11.28125 51.796875 
Q 16.75 56 26.8125 56 
Q 31.78125 56 36.171875 55.265625 
Q 40.578125 54.546875 44.28125 53.078125 
z
" id="DejaVuSans-73"/>
     <path d="M 41.109375 46.296875 
Q 39.59375 47.171875 37.8125 47.578125 
Q 36.03125 48 33.890625 48 
Q 26.265625 48 22.1875 43.046875 
Q 18.109375 38.09375 18.109375 28.8125 
L 18.109375 0 
L 9.078125 0 
L 9.078125 54.6875 
L 18.109375 54.6875 
L 18.109375 46.1875 
Q 20.953125 51.171875 25.484375 53.578125 
Q 30.03125 56 36.53125 56 
Q 37.453125 56 38.578125 55.875 
Q 39.703125 55.765625 41.0625 55.515625 
z
" id="DejaVuSans-72"/>
     <path d="M 48.78125 52.59375 
L 48.78125 44.1875 
Q 44.96875 46.296875 41.140625 47.34375 
Q 37.3125 48.390625 33.40625 48.390625 
Q 24.65625 48.390625 19.8125 42.84375 
Q 14.984375 37.3125 14.984375 27.296875 
Q 14.984375 17.28125 19.8125 11.734375 
Q 24.65625 6.203125 33.40625 6.203125 
Q 37.3125 6.203125 41.140625 7.25 
Q 44.96875 8.296875 48.78125 10.40625 
L 48.78125 2.09375 
Q 45.015625 0.34375 40.984375 -0.53125 
Q 36.96875 -1.421875 32.421875 -1.421875 
Q 20.0625 -1.421875 12.78125 6.34375 
Q 5.515625 14.109375 5.515625 27.296875 
Q 5.515625 40.671875 12.859375 48.328125 
Q 20.21875 56 33.015625 56 
Q 37.15625 56 41.109375 55.140625 
Q 45.0625 54.296875 48.78125 52.59375 
z
" id="DejaVuSans-63"/>
     <path d="M 45.40625 46.390625 
L 45.40625 75.984375 
L 54.390625 75.984375 
L 54.390625 0 
L 45.40625 0 
L 45.40625 8.203125 
Q 42.578125 3.328125 38.25 0.953125 
Q 33.9375 -1.421875 27.875 -1.421875 
Q 17.96875 -1.421875 11.734375 6.484375 
Q 5.515625 14.40625 5.515625 27.296875 
Q 5.515625 40.1875 11.734375 48.09375 
Q 17.96875 56 27.875 56 
Q 33.9375 56 38.25 53.625 
Q 42.578125 51.265625 45.40625 46.390625 
z
M 14.796875 27.296875 
Q 14.796875 17.390625 18.875 11.75 
Q 22.953125 6.109375 30.078125 6.109375 
Q 37.203125 6.109375 41.296875 11.75 
Q 45.40625 17.390625 45.40625 27.296875 
Q 45.40625 37.203125 41.296875 42.84375 
Q 37.203125 48.484375 30.078125 48.484375 
Q 22.953125 48.484375 18.875 42.84375 
Q 14.796875 37.203125 14.796875 27.296875 
z
" id="DejaVuSans-64"/>
    </defs>
    <g transform="translate(367.261563 20.88)scale(0.12 -0.12)">
     <use xlink:href="#DejaVuSans-50"/>
     <use x="60.302734" xlink:href="#DejaVuSans-45"/>
     <use x="123.486328" xlink:href="#DejaVuSans-20"/>
     <use x="155.273438" xlink:href="#DejaVuSans-75"/>
     <use x="218.652344" xlink:href="#DejaVuSans-74"/>
     <use x="257.861328" xlink:href="#DejaVuSans-69"/>
     <use x="285.644531" xlink:href="#DejaVuSans-6c"/>
     <use x="313.427734" xlink:href="#DejaVuSans-69"/>
     <use x="341.210938" xlink:href="#DejaVuSans-7a"/>
     <use x="393.701172" xlink:href="#DejaVuSans-61"/>
     <use x="454.980469" xlink:href="#DejaVuSans-74"/>
     <use x="494.189453" xlink:href="#DejaVuSans-69"/>
     <use x="521.972656" xlink:href="#DejaVuSans-6f"/>
     <use x="583.154297" xlink:href="#DejaVuSans-6e"/>
     <use x="646.533203" xlink:href="#DejaVuSans-20"/>
     <use x="678.320312" xlink:href="#DejaVuSans-68"/>
     <use x="741.699219" xlink:href="#DejaVuSans-69"/>
     <use x="769.482422" xlink:href="#DejaVuSans-73"/>
     <use x="821.582031" xlink:href="#DejaVuSans-74"/>
     <use x="860.791016" xlink:href="#DejaVuSans-6f"/>
     <use x="921.972656" xlink:href="#DejaVuSans-72"/>
     <use x="963.085938" xlink:href="#DejaVuSans-69"/>
     <use x="990.869141" xlink:href="#DejaVuSans-63"/>
     <use x="1045.849609" xlink:href="#DejaVuSans-61"/>
     <use x="1107.128906" xlink:href="#DejaVuSans-6c"/>
     <use x="1134.912109" xlink:href="#DejaVuSans-20"/>
     <use x="1166.699219" xlink:href="#DejaVuSans-64"/>
     <use x="1230.175781" xlink:href="#DejaVuSans-61"/>
     <use x="1291.455078" xlink:href="#DejaVuSans-74"/>
     <use x="1330.664062" xlink:href="#DejaVuSans-61"/>
    </g>
   </g>
   <g id="legend_1">
    <g id="patch_45">
     <path d="M 615.025313 169.48625 
L 843.68 169.48625 
Q 845.68 169.48625 845.68 167.48625 
L 845.68 33.88 
Q 845.68 31.88 843.68 31.88 
L 615.025313 31.88 
Q 613.025313 31.88 613.025313 33.88 
L 613.025313 167.48625 
Q 613.025313 169.48625 615.025313 169.48625 
z
" style="fill:#ffffff;opacity:0.8;stroke:#cccccc;stroke-linejoin:miter;"/>
    </g>
    <g id="line2d_48">
     <path d="M 617.025313 39.978438 
L 637.025313 39.978438 
" style="fill:none;stroke:#1f77b4;stroke-linecap:square;stroke-width:1.5;"/>
    </g>
    <g id="line2d_49">
     <g>
      <use style="fill:#1f77b4;stroke:#1f77b4;" x="627.025313" xlink:href="#m654ba01b3f" y="39.978438"/>
     </g>
    </g>
    <g id="text_42">
     <!-- 7-rn50_nne_fp16_wave -->
     <defs>
      <path d="M 4.890625 31.390625 
L 31.203125 31.390625 
L 31.203125 23.390625 
L 4.890625 23.390625 
z
" id="DejaVuSans-2d"/>
      <path d="M 50.984375 -16.609375 
L 50.984375 -23.578125 
L -0.984375 -23.578125 
L -0.984375 -16.609375 
z
" id="DejaVuSans-5f"/>
      <path d="M 37.109375 75.984375 
L 37.109375 68.5 
L 28.515625 68.5 
Q 23.6875 68.5 21.796875 66.546875 
Q 19.921875 64.59375 19.921875 59.515625 
L 19.921875 54.6875 
L 34.71875 54.6875 
L 34.71875 47.703125 
L 19.921875 47.703125 
L 19.921875 0 
L 10.890625 0 
L 10.890625 47.703125 
L 2.296875 47.703125 
L 2.296875 54.6875 
L 10.890625 54.6875 
L 10.890625 58.5 
Q 10.890625 67.625 15.140625 71.796875 
Q 19.390625 75.984375 28.609375 75.984375 
z
" id="DejaVuSans-66"/>
      <path d="M 18.109375 8.203125 
L 18.109375 -20.796875 
L 9.078125 -20.796875 
L 9.078125 54.6875 
L 18.109375 54.6875 
L 18.109375 46.390625 
Q 20.953125 51.265625 25.265625 53.625 
Q 29.59375 56 35.59375 56 
Q 45.5625 56 51.78125 48.09375 
Q 58.015625 40.1875 58.015625 27.296875 
Q 58.015625 14.40625 51.78125 6.484375 
Q 45.5625 -1.421875 35.59375 -1.421875 
Q 29.59375 -1.421875 25.265625 0.953125 
Q 20.953125 3.328125 18.109375 8.203125 
z
M 48.6875 27.296875 
Q 48.6875 37.203125 44.609375 42.84375 
Q 40.53125 48.484375 33.40625 48.484375 
Q 26.265625 48.484375 22.1875 42.84375 
Q 18.109375 37.203125 18.109375 27.296875 
Q 18.109375 17.390625 22.1875 11.75 
Q 26.265625 6.109375 33.40625 6.109375 
Q 40.53125 6.109375 44.609375 11.75 
Q 48.6875 17.390625 48.6875 27.296875 
z
" id="DejaVuSans-70"/>
      <path d="M 4.203125 54.6875 
L 13.1875 54.6875 
L 24.421875 12.015625 
L 35.59375 54.6875 
L 46.1875 54.6875 
L 57.421875 12.015625 
L 68.609375 54.6875 
L 77.59375 54.6875 
L 63.28125 0 
L 52.6875 0 
L 40.921875 44.828125 
L 29.109375 0 
L 18.5 0 
z
" id="DejaVuSans-77"/>
      <path d="M 2.984375 54.6875 
L 12.5 54.6875 
L 29.59375 8.796875 
L 46.6875 54.6875 
L 56.203125 54.6875 
L 35.6875 0 
L 23.484375 0 
z
" id="DejaVuSans-76"/>
     </defs>
     <g transform="translate(645.025313 43.478438)scale(0.1 -0.1)">
      <use xlink:href="#DejaVuSans-37"/>
      <use x="63.623047" xlink:href="#DejaVuSans-2d"/>
      <use x="99.707031" xlink:href="#DejaVuSans-72"/>
      <use x="140.804688" xlink:href="#DejaVuSans-6e"/>
      <use x="204.183594" xlink:href="#DejaVuSans-35"/>
      <use x="267.806641" xlink:href="#DejaVuSans-30"/>
      <use x="331.429688" xlink:href="#DejaVuSans-5f"/>
      <use x="381.429688" xlink:href="#DejaVuSans-6e"/>
      <use x="444.808594" xlink:href="#DejaVuSans-6e"/>
      <use x="508.1875" xlink:href="#DejaVuSans-65"/>
      <use x="569.710938" xlink:href="#DejaVuSans-5f"/>
      <use x="619.710938" xlink:href="#DejaVuSans-66"/>
      <use x="654.916016" xlink:href="#DejaVuSans-70"/>
      <use x="718.392578" xlink:href="#DejaVuSans-31"/>
      <use x="782.015625" xlink:href="#DejaVuSans-36"/>
      <use x="845.638672" xlink:href="#DejaVuSans-5f"/>
      <use x="895.638672" xlink:href="#DejaVuSans-77"/>
      <use x="977.425781" xlink:href="#DejaVuSans-61"/>
      <use x="1038.705078" xlink:href="#DejaVuSans-76"/>
      <use x="1097.884766" xlink:href="#DejaVuSans-65"/>
     </g>
    </g>
    <g id="line2d_50">
     <path d="M 617.025313 54.934687 
L 637.025313 54.934687 
" style="fill:none;stroke:#ff7f0e;stroke-linecap:square;stroke-width:1.5;"/>
    </g>
    <g id="line2d_51">
     <defs>
      <path d="M 0 3 
C 0.795609 3 1.55874 2.683901 2.12132 2.12132 
C 2.683901 1.55874 3 0.795609 3 0 
C 3 -0.795609 2.683901 -1.55874 2.12132 -2.12132 
C 1.55874 -2.683901 0.795609 -3 0 -3 
C -0.795609 -3 -1.55874 -2.683901 -2.12132 -2.12132 
C -2.683901 -1.55874 -3 -0.795609 -3 0 
C -3 0.795609 -2.683901 1.55874 -2.12132 2.12132 
C -1.55874 2.683901 -0.795609 3 0 3 
z
" id="mb544b9e75b" style="stroke:#ff7f0e;"/>
     </defs>
     <g>
      <use style="fill:#ff7f0e;stroke:#ff7f0e;" x="627.025313" xlink:href="#mb544b9e75b" y="54.934687"/>
     </g>
    </g>
    <g id="text_43">
     <!-- 7-rn50_nne_fp16_b4_wave -->
     <defs>
      <path d="M 48.6875 27.296875 
Q 48.6875 37.203125 44.609375 42.84375 
Q 40.53125 48.484375 33.40625 48.484375 
Q 26.265625 48.484375 22.1875 42.84375 
Q 18.109375 37.203125 18.109375 27.296875 
Q 18.109375 17.390625 22.1875 11.75 
Q 26.265625 6.109375 33.40625 6.109375 
Q 40.53125 6.109375 44.609375 11.75 
Q 48.6875 17.390625 48.6875 27.296875 
z
M 18.109375 46.390625 
Q 20.953125 51.265625 25.265625 53.625 
Q 29.59375 56 35.59375 56 
Q 45.5625 56 51.78125 48.09375 
Q 58.015625 40.1875 58.015625 27.296875 
Q 58.015625 14.40625 51.78125 6.484375 
Q 45.5625 -1.421875 35.59375 -1.421875 
Q 29.59375 -1.421875 25.265625 0.953125 
Q 20.953125 3.328125 18.109375 8.203125 
L 18.109375 0 
L 9.078125 0 
L 9.078125 75.984375 
L 18.109375 75.984375 
z
" id="DejaVuSans-62"/>
     </defs>
     <g transform="translate(645.025313 58.434687)scale(0.1 -0.1)">
      <use xlink:href="#DejaVuSans-37"/>
      <use x="63.623047" xlink:href="#DejaVuSans-2d"/>
      <use x="99.707031" xlink:href="#DejaVuSans-72"/>
      <use x="140.804688" xlink:href="#DejaVuSans-6e"/>
      <use x="204.183594" xlink:href="#DejaVuSans-35"/>
      <use x="267.806641" xlink:href="#DejaVuSans-30"/>
      <use x="331.429688" xlink:href="#DejaVuSans-5f"/>
      <use x="381.429688" xlink:href="#DejaVuSans-6e"/>
      <use x="444.808594" xlink:href="#DejaVuSans-6e"/>
      <use x="508.1875" xlink:href="#DejaVuSans-65"/>
      <use x="569.710938" xlink:href="#DejaVuSans-5f"/>
      <use x="619.710938" xlink:href="#DejaVuSans-66"/>
      <use x="654.916016" xlink:href="#DejaVuSans-70"/>
      <use x="718.392578" xlink:href="#DejaVuSans-31"/>
      <use x="782.015625" xlink:href="#DejaVuSans-36"/>
      <use x="845.638672" xlink:href="#DejaVuSans-5f"/>
      <use x="895.638672" xlink:href="#DejaVuSans-62"/>
      <use x="959.115234" xlink:href="#DejaVuSans-34"/>
      <use x="1022.738281" xlink:href="#DejaVuSans-5f"/>
      <use x="1072.738281" xlink:href="#DejaVuSans-77"/>
      <use x="1154.525391" xlink:href="#DejaVuSans-61"/>
      <use x="1215.804688" xlink:href="#DejaVuSans-76"/>
      <use x="1274.984375" xlink:href="#DejaVuSans-65"/>
     </g>
    </g>
    <g id="line2d_52">
     <path d="M 617.025313 69.890938 
L 637.025313 69.890938 
" style="fill:none;stroke:#2ca02c;stroke-linecap:square;stroke-width:1.5;"/>
    </g>
    <g id="line2d_53">
     <defs>
      <path d="M 0 3 
C 0.795609 3 1.55874 2.683901 2.12132 2.12132 
C 2.683901 1.55874 3 0.795609 3 0 
C 3 -0.795609 2.683901 -1.55874 2.12132 -2.12132 
C 1.55874 -2.683901 0.795609 -3 0 -3 
C -0.795609 -3 -1.55874 -2.683901 -2.12132 -2.12132 
C -2.683901 -1.55874 -3 -0.795609 -3 0 
C -3 0.795609 -2.683901 1.55874 -2.12132 2.12132 
C -1.55874 2.683901 -0.795609 3 0 3 
z
" id="mcecdb9d7c4" style="stroke:#2ca02c;"/>
     </defs>
     <g>
      <use style="fill:#2ca02c;stroke:#2ca02c;" x="627.025313" xlink:href="#mcecdb9d7c4" y="69.890938"/>
     </g>
    </g>
    <g id="text_44">
     <!-- 8-rn50_nne_fp16_b16_wave -->
     <g transform="translate(645.025313 73.390938)scale(0.1 -0.1)">
      <use xlink:href="#DejaVuSans-38"/>
      <use x="63.623047" xlink:href="#DejaVuSans-2d"/>
      <use x="99.707031" xlink:href="#DejaVuSans-72"/>
      <use x="140.804688" xlink:href="#DejaVuSans-6e"/>
      <use x="204.183594" xlink:href="#DejaVuSans-35"/>
      <use x="267.806641" xlink:href="#DejaVuSans-30"/>
      <use x="331.429688" xlink:href="#DejaVuSans-5f"/>
      <use x="381.429688" xlink:href="#DejaVuSans-6e"/>
      <use x="444.808594" xlink:href="#DejaVuSans-6e"/>
      <use x="508.1875" xlink:href="#DejaVuSans-65"/>
      <use x="569.710938" xlink:href="#DejaVuSans-5f"/>
      <use x="619.710938" xlink:href="#DejaVuSans-66"/>
      <use x="654.916016" xlink:href="#DejaVuSans-70"/>
      <use x="718.392578" xlink:href="#DejaVuSans-31"/>
      <use x="782.015625" xlink:href="#DejaVuSans-36"/>
      <use x="845.638672" xlink:href="#DejaVuSans-5f"/>
      <use x="895.638672" xlink:href="#DejaVuSans-62"/>
      <use x="959.115234" xlink:href="#DejaVuSans-31"/>
      <use x="1022.738281" xlink:href="#DejaVuSans-36"/>
      <use x="1086.361328" xlink:href="#DejaVuSans-5f"/>
      <use x="1136.361328" xlink:href="#DejaVuSans-77"/>
      <use x="1218.148438" xlink:href="#DejaVuSans-61"/>
      <use x="1279.427734" xlink:href="#DejaVuSans-76"/>
      <use x="1338.607422" xlink:href="#DejaVuSans-65"/>
     </g>
    </g>
    <g id="line2d_54">
     <path d="M 617.025313 84.847188 
L 637.025313 84.847188 
" style="fill:none;stroke:#d62728;stroke-linecap:square;stroke-width:1.5;"/>
    </g>
    <g id="line2d_55">
     <g>
      <use style="fill:#d62728;stroke:#d62728;" x="627.025313" xlink:href="#m4c971dc923" y="84.847188"/>
     </g>
    </g>
    <g id="text_45">
     <!-- 7-rn50_nne_fp16_wave-two_banks -->
     <defs>
      <path d="M 9.078125 75.984375 
L 18.109375 75.984375 
L 18.109375 31.109375 
L 44.921875 54.6875 
L 56.390625 54.6875 
L 27.390625 29.109375 
L 57.625 0 
L 45.90625 0 
L 18.109375 26.703125 
L 18.109375 0 
L 9.078125 0 
z
" id="DejaVuSans-6b"/>
     </defs>
     <g transform="translate(645.025313 88.347188)scale(0.1 -0.1)">
      <use xlink:href="#DejaVuSans-37"/>
      <use x="63.623047" xlink:href="#DejaVuSans-2d"/>
      <use x="99.707031" xlink:href="#DejaVuSans-72"/>
      <use x="140.804688" xlink:href="#DejaVuSans-6e"/>
      <use x="204.183594" xlink:href="#DejaVuSans-35"/>
      <use x="267.806641" xlink:href="#DejaVuSans-30"/>
      <use x="331.429688" xlink:href="#DejaVuSans-5f"/>
      <use x="381.429688" xlink:href="#DejaVuSans-6e"/>
      <use x="444.808594" xlink:href="#DejaVuSans-6e"/>
      <use x="508.1875" xlink:href="#DejaVuSans-65"/>
      <use x="569.710938" xlink:href="#DejaVuSans-5f"/>
      <use x="619.710938" xlink:href="#DejaVuSans-66"/>
      <use x="654.916016" xlink:href="#DejaVuSans-70"/>
      <use x="718.392578" xlink:href="#DejaVuSans-31"/>
      <use x="782.015625" xlink:href="#DejaVuSans-36"/>
      <use x="845.638672" xlink:href="#DejaVuSans-5f"/>
      <use x="895.638672" xlink:href="#DejaVuSans-77"/>
      <use x="977.425781" xlink:href="#DejaVuSans-61"/>
      <use x="1038.705078" xlink:href="#DejaVuSans-76"/>
      <use x="1097.884766" xlink:href="#DejaVuSans-65"/>
      <use x="1159.408203" xlink:href="#DejaVuSans-2d"/>
      <use x="1195.492188" xlink:href="#DejaVuSans-74"/>
      <use x="1234.701172" xlink:href="#DejaVuSans-77"/>
      <use x="1316.488281" xlink:href="#DejaVuSans-6f"/>
      <use x="1377.669922" xlink:href="#DejaVuSans-5f"/>
      <use x="1427.669922" xlink:href="#DejaVuSans-62"/>
      <use x="1491.146484" xlink:href="#DejaVuSans-61"/>
      <use x="1552.425781" xlink:href="#DejaVuSans-6e"/>
      <use x="1615.804688" xlink:href="#DejaVuSans-6b"/>
      <use x="1673.714844" xlink:href="#DejaVuSans-73"/>
     </g>
    </g>
    <g id="line2d_56">
     <path d="M 617.025313 99.803438 
L 637.025313 99.803438 
" style="fill:none;stroke:#9467bd;stroke-linecap:square;stroke-width:1.5;"/>
    </g>
    <g id="line2d_57">
     <defs>
      <path d="M 0 3 
C 0.795609 3 1.55874 2.683901 2.12132 2.12132 
C 2.683901 1.55874 3 0.795609 3 0 
C 3 -0.795609 2.683901 -1.55874 2.12132 -2.12132 
C 1.55874 -2.683901 0.795609 -3 0 -3 
C -0.795609 -3 -1.55874 -2.683901 -2.12132 -2.12132 
C -2.683901 -1.55874 -3 -0.795609 -3 0 
C -3 0.795609 -2.683901 1.55874 -2.12132 2.12132 
C -1.55874 2.683901 -0.795609 3 0 3 
z
" id="m8a9c2dbc4b" style="stroke:#9467bd;"/>
     </defs>
     <g>
      <use style="fill:#9467bd;stroke:#9467bd;" x="627.025313" xlink:href="#m8a9c2dbc4b" y="99.803438"/>
     </g>
    </g>
    <g id="text_46">
     <!-- 7-rn50_nne_fp16_b4_wave-two_banks -->
     <g transform="translate(645.025313 103.303438)scale(0.1 -0.1)">
      <use xlink:href="#DejaVuSans-37"/>
      <use x="63.623047" xlink:href="#DejaVuSans-2d"/>
      <use x="99.707031" xlink:href="#DejaVuSans-72"/>
      <use x="140.804688" xlink:href="#DejaVuSans-6e"/>
      <use x="204.183594" xlink:href="#DejaVuSans-35"/>
      <use x="267.806641" xlink:href="#DejaVuSans-30"/>
      <use x="331.429688" xlink:href="#DejaVuSans-5f"/>
      <use x="381.429688" xlink:href="#DejaVuSans-6e"/>
      <use x="444.808594" xlink:href="#DejaVuSans-6e"/>
      <use x="508.1875" xlink:href="#DejaVuSans-65"/>
      <use x="569.710938" xlink:href="#DejaVuSans-5f"/>
      <use x="619.710938" xlink:href="#DejaVuSans-66"/>
      <use x="654.916016" xlink:href="#DejaVuSans-70"/>
      <use x="718.392578" xlink:href="#DejaVuSans-31"/>
      <use x="782.015625" xlink:href="#DejaVuSans-36"/>
      <use x="845.638672" xlink:href="#DejaVuSans-5f"/>
      <use x="895.638672" xlink:href="#DejaVuSans-62"/>
      <use x="959.115234" xlink:href="#DejaVuSans-34"/>
      <use x="1022.738281" xlink:href="#DejaVuSans-5f"/>
      <use x="1072.738281" xlink:href="#DejaVuSans-77"/>
      <use x="1154.525391" xlink:href="#DejaVuSans-61"/>
      <use x="1215.804688" xlink:href="#DejaVuSans-76"/>
      <use x="1274.984375" xlink:href="#DejaVuSans-65"/>
      <use x="1336.507812" xlink:href="#DejaVuSans-2d"/>
      <use x="1372.591797" xlink:href="#DejaVuSans-74"/>
      <use x="1411.800781" xlink:href="#DejaVuSans-77"/>
      <use x="1493.587891" xlink:href="#DejaVuSans-6f"/>
      <use x="1554.769531" xlink:href="#DejaVuSans-5f"/>
      <use x="1604.769531" xlink:href="#DejaVuSans-62"/>
      <use x="1668.246094" xlink:href="#DejaVuSans-61"/>
      <use x="1729.525391" xlink:href="#DejaVuSans-6e"/>
      <use x="1792.904297" xlink:href="#DejaVuSans-6b"/>
      <use x="1850.814453" xlink:href="#DejaVuSans-73"/>
     </g>
    </g>
    <g id="line2d_58">
     <path d="M 617.025313 114.759688 
L 637.025313 114.759688 
" style="fill:none;stroke:#8c564b;stroke-linecap:square;stroke-width:1.5;"/>
    </g>
    <g id="line2d_59">
     <defs>
      <path d="M 0 3 
C 0.795609 3 1.55874 2.683901 2.12132 2.12132 
C 2.683901 1.55874 3 0.795609 3 0 
C 3 -0.795609 2.683901 -1.55874 2.12132 -2.12132 
C 1.55874 -2.683901 0.795609 -3 0 -3 
C -0.795609 -3 -1.55874 -2.683901 -2.12132 -2.12132 
C -2.683901 -1.55874 -3 -0.795609 -3 0 
C -3 0.795609 -2.683901 1.55874 -2.12132 2.12132 
C -1.55874 2.683901 -0.795609 3 0 3 
z
" id="m663b24ba02" style="stroke:#8c564b;"/>
     </defs>
     <g>
      <use style="fill:#8c564b;stroke:#8c564b;" x="627.025313" xlink:href="#m663b24ba02" y="114.759688"/>
     </g>
    </g>
    <g id="text_47">
     <!-- 8-rn50_nne_fp16_b16_wave-two_banks -->
     <g transform="translate(645.025313 118.259688)scale(0.1 -0.1)">
      <use xlink:href="#DejaVuSans-38"/>
      <use x="63.623047" xlink:href="#DejaVuSans-2d"/>
      <use x="99.707031" xlink:href="#DejaVuSans-72"/>
      <use x="140.804688" xlink:href="#DejaVuSans-6e"/>
      <use x="204.183594" xlink:href="#DejaVuSans-35"/>
      <use x="267.806641" xlink:href="#DejaVuSans-30"/>
      <use x="331.429688" xlink:href="#DejaVuSans-5f"/>
      <use x="381.429688" xlink:href="#DejaVuSans-6e"/>
      <use x="444.808594" xlink:href="#DejaVuSans-6e"/>
      <use x="508.1875" xlink:href="#DejaVuSans-65"/>
      <use x="569.710938" xlink:href="#DejaVuSans-5f"/>
      <use x="619.710938" xlink:href="#DejaVuSans-66"/>
      <use x="654.916016" xlink:href="#DejaVuSans-70"/>
      <use x="718.392578" xlink:href="#DejaVuSans-31"/>
      <use x="782.015625" xlink:href="#DejaVuSans-36"/>
      <use x="845.638672" xlink:href="#DejaVuSans-5f"/>
      <use x="895.638672" xlink:href="#DejaVuSans-62"/>
      <use x="959.115234" xlink:href="#DejaVuSans-31"/>
      <use x="1022.738281" xlink:href="#DejaVuSans-36"/>
      <use x="1086.361328" xlink:href="#DejaVuSans-5f"/>
      <use x="1136.361328" xlink:href="#DejaVuSans-77"/>
      <use x="1218.148438" xlink:href="#DejaVuSans-61"/>
      <use x="1279.427734" xlink:href="#DejaVuSans-76"/>
      <use x="1338.607422" xlink:href="#DejaVuSans-65"/>
      <use x="1400.130859" xlink:href="#DejaVuSans-2d"/>
      <use x="1436.214844" xlink:href="#DejaVuSans-74"/>
      <use x="1475.423828" xlink:href="#DejaVuSans-77"/>
      <use x="1557.210938" xlink:href="#DejaVuSans-6f"/>
      <use x="1618.392578" xlink:href="#DejaVuSans-5f"/>
      <use x="1668.392578" xlink:href="#DejaVuSans-62"/>
      <use x="1731.869141" xlink:href="#DejaVuSans-61"/>
      <use x="1793.148438" xlink:href="#DejaVuSans-6e"/>
      <use x="1856.527344" xlink:href="#DejaVuSans-6b"/>
      <use x="1914.4375" xlink:href="#DejaVuSans-73"/>
     </g>
    </g>
    <g id="line2d_60">
     <path d="M 617.025313 129.715938 
L 637.025313 129.715938 
" style="fill:none;stroke:#e377c2;stroke-linecap:square;stroke-width:1.5;"/>
    </g>
    <g id="line2d_61">
     <g>
      <use style="fill:#e377c2;stroke:#e377c2;" x="627.025313" xlink:href="#m079ae4e384" y="129.715938"/>
     </g>
    </g>
    <g id="text_48">
     <!-- 7-rn50_nne_fp16_wave-fast_dram -->
     <defs>
      <path d="M 52 44.1875 
Q 55.375 50.25 60.0625 53.125 
Q 64.75 56 71.09375 56 
Q 79.640625 56 84.28125 50.015625 
Q 88.921875 44.046875 88.921875 33.015625 
L 88.921875 0 
L 79.890625 0 
L 79.890625 32.71875 
Q 79.890625 40.578125 77.09375 44.375 
Q 74.3125 48.1875 68.609375 48.1875 
Q 61.625 48.1875 57.5625 43.546875 
Q 53.515625 38.921875 53.515625 30.90625 
L 53.515625 0 
L 44.484375 0 
L 44.484375 32.71875 
Q 44.484375 40.625 41.703125 44.40625 
Q 38.921875 48.1875 33.109375 48.1875 
Q 26.21875 48.1875 22.15625 43.53125 
Q 18.109375 38.875 18.109375 30.90625 
L 18.109375 0 
L 9.078125 0 
L 9.078125 54.6875 
L 18.109375 54.6875 
L 18.109375 46.1875 
Q 21.1875 51.21875 25.484375 53.609375 
Q 29.78125 56 35.6875 56 
Q 41.65625 56 45.828125 52.96875 
Q 50 49.953125 52 44.1875 
z
" id="DejaVuSans-6d"/>
     </defs>
     <g transform="translate(645.025313 133.215938)scale(0.1 -0.1)">
      <use xlink:href="#DejaVuSans-37"/>
      <use x="63.623047" xlink:href="#DejaVuSans-2d"/>
      <use x="99.707031" xlink:href="#DejaVuSans-72"/>
      <use x="140.804688" xlink:href="#DejaVuSans-6e"/>
      <use x="204.183594" xlink:href="#DejaVuSans-35"/>
      <use x="267.806641" xlink:href="#DejaVuSans-30"/>
      <use x="331.429688" xlink:href="#DejaVuSans-5f"/>
      <use x="381.429688" xlink:href="#DejaVuSans-6e"/>
      <use x="444.808594" xlink:href="#DejaVuSans-6e"/>
      <use x="508.1875" xlink:href="#DejaVuSans-65"/>
      <use x="569.710938" xlink:href="#DejaVuSans-5f"/>
      <use x="619.710938" xlink:href="#DejaVuSans-66"/>
      <use x="654.916016" xlink:href="#DejaVuSans-70"/>
      <use x="718.392578" xlink:href="#DejaVuSans-31"/>
      <use x="782.015625" xlink:href="#DejaVuSans-36"/>
      <use x="845.638672" xlink:href="#DejaVuSans-5f"/>
      <use x="895.638672" xlink:href="#DejaVuSans-77"/>
      <use x="977.425781" xlink:href="#DejaVuSans-61"/>
      <use x="1038.705078" xlink:href="#DejaVuSans-76"/>
      <use x="1097.884766" xlink:href="#DejaVuSans-65"/>
      <use x="1159.408203" xlink:href="#DejaVuSans-2d"/>
      <use x="1195.492188" xlink:href="#DejaVuSans-66"/>
      <use x="1230.697266" xlink:href="#DejaVuSans-61"/>
      <use x="1291.976562" xlink:href="#DejaVuSans-73"/>
      <use x="1344.076172" xlink:href="#DejaVuSans-74"/>
      <use x="1383.285156" xlink:href="#DejaVuSans-5f"/>
      <use x="1433.285156" xlink:href="#DejaVuSans-64"/>
      <use x="1496.761719" xlink:href="#DejaVuSans-72"/>
      <use x="1537.875" xlink:href="#DejaVuSans-61"/>
      <use x="1599.154297" xlink:href="#DejaVuSans-6d"/>
     </g>
    </g>
    <g id="line2d_62">
     <path d="M 617.025313 144.672188 
L 637.025313 144.672188 
" style="fill:none;stroke:#7f7f7f;stroke-linecap:square;stroke-width:1.5;"/>
    </g>
    <g id="line2d_63">
     <defs>
      <path d="M 0 3 
C 0.795609 3 1.55874 2.683901 2.12132 2.12132 
C 2.683901 1.55874 3 0.795609 3 0 
C 3 -0.795609 2.683901 -1.55874 2.12132 -2.12132 
C 1.55874 -2.683901 0.795609 -3 0 -3 
C -0.795609 -3 -1.55874 -2.683901 -2.12132 -2.12132 
C -2.683901 -1.55874 -3 -0.795609 -3 0 
C -3 0.795609 -2.683901 1.55874 -2.12132 2.12132 
C -1.55874 2.683901 -0.795609 3 0 3 
z
" id="m1cbcc04025" style="stroke:#7f7f7f;"/>
     </defs>
     <g>
      <use style="fill:#7f7f7f;stroke:#7f7f7f;" x="627.025313" xlink:href="#m1cbcc04025" y="144.672188"/>
     </g>
    </g>
    <g id="text_49">
     <!-- 7-rn50_nne_fp16_b4_wave-fast_dram -->
     <g transform="translate(645.025313 148.172188)scale(0.1 -0.1)">
      <use xlink:href="#DejaVuSans-37"/>
      <use x="63.623047" xlink:href="#DejaVuSans-2d"/>
      <use x="99.707031" xlink:href="#DejaVuSans-72"/>
      <use x="140.804688" xlink:href="#DejaVuSans-6e"/>
      <use x="204.183594" xlink:href="#DejaVuSans-35"/>
      <use x="267.806641" xlink:href="#DejaVuSans-30"/>
      <use x="331.429688" xlink:href="#DejaVuSans-5f"/>
      <use x="381.429688" xlink:href="#DejaVuSans-6e"/>
      <use x="444.808594" xlink:href="#DejaVuSans-6e"/>
      <use x="508.1875" xlink:href="#DejaVuSans-65"/>
      <use x="569.710938" xlink:href="#DejaVuSans-5f"/>
      <use x="619.710938" xlink:href="#DejaVuSans-66"/>
      <use x="654.916016" xlink:href="#DejaVuSans-70"/>
      <use x="718.392578" xlink:href="#DejaVuSans-31"/>
      <use x="782.015625" xlink:href="#DejaVuSans-36"/>
      <use x="845.638672" xlink:href="#DejaVuSans-5f"/>
      <use x="895.638672" xlink:href="#DejaVuSans-62"/>
      <use x="959.115234" xlink:href="#DejaVuSans-34"/>
      <use x="1022.738281" xlink:href="#DejaVuSans-5f"/>
      <use x="1072.738281" xlink:href="#DejaVuSans-77"/>
      <use x="1154.525391" xlink:href="#DejaVuSans-61"/>
      <use x="1215.804688" xlink:href="#DejaVuSans-76"/>
      <use x="1274.984375" xlink:href="#DejaVuSans-65"/>
      <use x="1336.507812" xlink:href="#DejaVuSans-2d"/>
      <use x="1372.591797" xlink:href="#DejaVuSans-66"/>
      <use x="1407.796875" xlink:href="#DejaVuSans-61"/>
      <use x="1469.076172" xlink:href="#DejaVuSans-73"/>
      <use x="1521.175781" xlink:href="#DejaVuSans-74"/>
      <use x="1560.384766" xlink:href="#DejaVuSans-5f"/>
      <use x="1610.384766" xlink:href="#DejaVuSans-64"/>
      <use x="1673.861328" xlink:href="#DejaVuSans-72"/>
      <use x="1714.974609" xlink:href="#DejaVuSans-61"/>
      <use x="1776.253906" xlink:href="#DejaVuSans-6d"/>
     </g>
    </g>
    <g id="line2d_64">
     <path d="M 617.025313 159.628438 
L 637.025313 159.628438 
" style="fill:none;stroke:#bcbd22;stroke-linecap:square;stroke-width:1.5;"/>
    </g>
    <g id="line2d_65">
     <defs>
      <path d="M 0 3 
C 0.795609 3 1.55874 2.683901 2.12132 2.12132 
C 2.683901 1.55874 3 0.795609 3 0 
C 3 -0.795609 2.683901 -1.55874 2.12132 -2.12132 
C 1.55874 -2.683901 0.795609 -3 0 -3 
C -0.795609 -3 -1.55874 -2.683901 -2.12132 -2.12132 
C -2.683901 -1.55874 -3 -0.795609 -3 0 
C -3 0.795609 -2.683901 1.55874 -2.12132 2.12132 
C -1.55874 2.683901 -0.795609 3 0 3 
z
" id="mde93908668" style="stroke:#bcbd22;"/>
     </defs>
     <g>
      <use style="fill:#bcbd22;stroke:#bcbd22;" x="627.025313" xlink:href="#mde93908668" y="159.628438"/>
     </g>
    </g>
    <g id="text_50">
     <!-- 8-rn50_nne_fp16_b16_wave-fast_dram -->
     <g transform="translate(645.025313 163.128438)scale(0.1 -0.1)">
      <use xlink:href="#DejaVuSans-38"/>
      <use x="63.623047" xlink:href="#DejaVuSans-2d"/>
      <use x="99.707031" xlink:href="#DejaVuSans-72"/>
      <use x="140.804688" xlink:href="#DejaVuSans-6e"/>
      <use x="204.183594" xlink:href="#DejaVuSans-35"/>
      <use x="267.806641" xlink:href="#DejaVuSans-30"/>
      <use x="331.429688" xlink:href="#DejaVuSans-5f"/>
      <use x="381.429688" xlink:href="#DejaVuSans-6e"/>
      <use x="444.808594" xlink:href="#DejaVuSans-6e"/>
      <use x="508.1875" xlink:href="#DejaVuSans-65"/>
      <use x="569.710938" xlink:href="#DejaVuSans-5f"/>
      <use x="619.710938" xlink:href="#DejaVuSans-66"/>
      <use x="654.916016" xlink:href="#DejaVuSans-70"/>
      <use x="718.392578" xlink:href="#DejaVuSans-31"/>
      <use x="782.015625" xlink:href="#DejaVuSans-36"/>
      <use x="845.638672" xlink:href="#DejaVuSans-5f"/>
      <use x="895.638672" xlink:href="#DejaVuSans-62"/>
      <use x="959.115234" xlink:href="#DejaVuSans-31"/>
      <use x="1022.738281" xlink:href="#DejaVuSans-36"/>
      <use x="1086.361328" xlink:href="#DejaVuSans-5f"/>
      <use x="1136.361328" xlink:href="#DejaVuSans-77"/>
      <use x="1218.148438" xlink:href="#DejaVuSans-61"/>
      <use x="1279.427734" xlink:href="#DejaVuSans-76"/>
      <use x="1338.607422" xlink:href="#DejaVuSans-65"/>
      <use x="1400.130859" xlink:href="#DejaVuSans-2d"/>
      <use x="1436.214844" xlink:href="#DejaVuSans-66"/>
      <use x="1471.419922" xlink:href="#DejaVuSans-61"/>
      <use x="1532.699219" xlink:href="#DejaVuSans-73"/>
      <use x="1584.798828" xlink:href="#DejaVuSans-74"/>
      <use x="1624.007812" xlink:href="#DejaVuSans-5f"/>
      <use x="1674.007812" xlink:href="#DejaVuSans-64"/>
      <use x="1737.484375" xlink:href="#DejaVuSans-72"/>
      <use x="1778.597656" xlink:href="#DejaVuSans-61"/>
      <use x="1839.876953" xlink:href="#DejaVuSans-6d"/>
     </g>
    </g>
   </g>
  </g>
 </g>
 <defs>
  <clipPath id="p24cf5ed03f">
   <rect height="466.48" width="799.81" x="50.87" y="26.88"/>
  </clipPath>
 </defs>
</svg>
